<?xml version="1.0" encoding="utf-8"?>
<!-- Generator: Adobe Illustrator 16.0.0, SVG Export Plug-In . SVG Version: 6.00 Build 0)  -->
<!DOCTYPE svg PUBLIC "-//W3C//DTD SVG 1.1//EN" "http://www.w3.org/Graphics/SVG/1.1/DTD/svg11.dtd">
<svg version="1.1" id="Layer_1" xmlns="http://www.w3.org/2000/svg" xmlns:xlink="http://www.w3.org/1999/xlink" x="0px" y="0px"
	 width="250px" height="250px" viewBox="0 0 250 250" enable-background="new 0 0 250 250" xml:space="preserve">
<g id="상세약도">
	<polygon fill="#E6E7E8" points="92.34,129.242 123.372,143.418 105.047,185.02 79.231,174.186 86.454,154.924 85.785,143.418 	"/>
	<polygon fill="#E6E7E8" points="189.718,124.786 192.404,127.523 214.409,106.766 211.506,103.734 	"/>
	<polygon fill="#E6E7E8" points="187.511,59.82 199.55,48.985 230.87,84.06 235.197,80.419 199.75,42.564 184.503,56.748 	"/>
	<path fill="none" stroke="#BCBEC0" stroke-width="4" stroke-miterlimit="10" d="M72.505,33.726v73.847c0,0,0.136,3.745,2.945,8.694
		c2.809,4.949,7.526,6.691,7.526,6.691l7.624,3.608c0,0,2.294,0.574,3.898,0.041c1.219-0.406,2.656-2.582,2.656-2.582l16.587-38.122
		c0,0,0.534-2.14,3.21-2.542c2.675-0.401,3.879,0.268,3.879,0.268l36.918,16.319c0,0,1.472,0.624,2.141,1.115
		c0.669,0.49,1.203,1.293,1.203,1.293l21.804,21.268c0,0,1.872,1.739,3.076,1.739s3.745-1.739,3.745-1.739l49.492-46.415
		c0,0,1.739-1.873,1.739-3.077c0-1.204-1.338-3.077-1.338-3.077l-31.701-28.09L167.246,16.08c0,0-8.159-4.414-15.517-3.746
		c-7.356,0.669-8.962,2.274-8.962,2.274s-2.273,0.937-3.611,2.675c-1.338,1.739-2.006,2.943-2.006,2.943s-1.272,2.521-2.284,3.611
		l-2.023,1.479l-2.805,0.317l-50.673-0.057c0,0-2.956,0.199-4.682,2.14C72.543,30.125,72.505,33.726,72.505,33.726z"/>
	<polygon fill="#F1F2F2" stroke="#636466" stroke-miterlimit="10" points="78.562,30.66 78.562,56.342 76.422,56.342 76.422,61.09 
		78.562,61.09 78.562,83.897 80.436,83.897 80.436,92.458 100.499,92.458 100.499,90.783 104.762,90.853 104.76,83.897 
		107.438,83.897 111.432,75.256 124.041,75.256 126.182,78.011 131.8,80.419 127.899,89.886 142.353,95.939 145.979,86.572 
		155.074,90.317 157.749,90.05 164.705,98.343 172.463,91.655 187.177,108.241 184.501,110.917 190.367,117.9 212.592,97.273 
		217.572,102.628 215.102,105.028 226.77,117.605 231.834,113.004 229.218,110.098 241.483,98.343 238.318,94.722 241.021,92.244 
		235.598,86.305 219.977,100.511 214.999,94.999 226.236,84.415 199.388,54.854 186.622,66.562 188.247,68.514 175.49,79.659 
		165.774,69.718 165.774,49.885 144.908,39.837 132.334,54.214 119.364,54.213 119.364,30.66 	"/>
	<path fill="none" stroke="#BCBEC0" stroke-width="4" stroke-miterlimit="10" d="M231.345,84.585l-30.324-33.594
		c0,0-0.669-0.669-1.337-0.669c-0.669,0-1.204,0.401-1.204,0.401l-10.3,9.898"/>
	<polygon fill="#E6E7E8" points="150.419,120.714 174.532,131.778 178.599,122.958 159.402,114 157.322,118.54 152.216,116.495 	"/>
	<path fill="none" stroke="#BCBEC0" stroke-width="4" stroke-miterlimit="10" d="M90.601,126.566l33.708,15.383l4.521,4.941
		c0,0,1.633,0.646,2.703,0.379c1.069-0.268,2.541-2.512,2.541-2.512l19.141-46.814"/>
	<path fill="none" stroke="#BCBEC0" stroke-width="4" stroke-miterlimit="10" d="M97.155,124.025
		c-0.016-0.059-0.711,1.447-0.382,3.308c0.261,1.478,2.105,3.012,2.105,3.012l25.43,11.604c0,0,4.682,6.42,7.224,7.357
		c2.541,0.936,10.7,3.21,10.7,3.21s1.739,0.134,3.345-1.472c1.604-1.605,3.948-4.576,3.948-4.576"/>
	<path fill="none" stroke="#BCBEC0" stroke-width="4" stroke-miterlimit="10" d="M146.865,113.473l35.095,16.705
		c0,0,1.739,1.205,1.204,2.408s-1.07,2.408-1.07,2.408l-33.574,31.835c0,0-1.838,2.007-1.654,4.815
		c0.183,2.809,1.387,4.548,1.387,4.548l50.436,52.847"/>
	<polyline fill="none" stroke="#BCBEC0" stroke-width="4" stroke-miterlimit="10" points="189.718,123.624 185.571,129.242 
		182.094,134.994 	"/>
	<path fill="none" stroke="#BCBEC0" stroke-width="4" stroke-miterlimit="10" d="M154.004,116.495l4.28-10.394
		c0,0,1.557-2.543,4.231-2.357"/>
	
		<line fill="none" stroke="#BCBEC0" stroke-width="4" stroke-miterlimit="10" x1="159.755" y1="188.238" x2="166.845" y2="181.408"/>
	
		<line fill="none" stroke="#BCBEC0" stroke-width="4" stroke-miterlimit="10" x1="175.799" y1="205.346" x2="182.889" y2="198.518"/>
	<polyline fill="#E6E7E8" points="223.004,168.508 210.585,154.523 203.286,160.896 182.742,139.016 151.596,168.301 
		192.394,210.971 208.822,195.922 201.417,187.814 223.004,168.508 	"/>
	<path fill="none" stroke="#BCBEC0" stroke-width="8" stroke-miterlimit="10" d="M91.397,216.547l14.386-17.338
		c0,0,3.21-4.023,5.217-6.43c2.006-2.408,2.607-3.611,2.607-3.611l17.925-39.861"/>
	<path fill="none" stroke="#BCBEC0" stroke-width="4" stroke-miterlimit="10" d="M135.056,150.439c0,0-0.882-1.506-1.183-2.557
		s0.592-4.08,0.592-4.08"/>
	<line fill="none" stroke="#BCBEC0" stroke-width="4" stroke-miterlimit="10" x1="72.543" y1="41.294" x2="56.425" y2="41.294"/>
	<path fill="none" stroke="#808285" stroke-width="12" stroke-miterlimit="10" d="M56.423,10.596v159.299
		c0,0,0.64,8.062-3.626,15.229c-4.267,7.164-5.464,7.709-5.464,7.709"/>
	
		<line fill="none" stroke="#808285" stroke-width="12" stroke-miterlimit="10" x1="51.758" y1="186.846" x2="109.699" y2="235.082"/>
	<rect x="81.824" y="33.246" width="34.557" height="21.308"/>
	<g>
		<path fill="#FFFFFF" d="M94.528,37.542c0.032-0.233,0.098-0.441,0.196-0.623c0.098-0.182,0.22-0.335,0.367-0.458
			c0.146-0.124,0.316-0.218,0.508-0.284c0.191-0.065,0.396-0.098,0.615-0.098c0.225,0,0.429,0.033,0.613,0.098
			c0.184,0.065,0.344,0.157,0.479,0.273c0.135,0.117,0.24,0.256,0.314,0.417c0.075,0.161,0.112,0.342,0.112,0.543
			c0,0.163-0.021,0.31-0.063,0.441c-0.042,0.13-0.103,0.244-0.182,0.339s-0.175,0.177-0.287,0.245
			c-0.112,0.067-0.235,0.125-0.371,0.171c0.336,0.084,0.591,0.232,0.764,0.444c0.172,0.212,0.259,0.478,0.259,0.794
			c0,0.233-0.046,0.446-0.137,0.637s-0.216,0.354-0.375,0.486c-0.158,0.133-0.342,0.236-0.549,0.308
			c-0.208,0.072-0.434,0.108-0.676,0.108c-0.275,0-0.509-0.034-0.7-0.104s-0.355-0.164-0.493-0.284
			c-0.138-0.12-0.25-0.261-0.336-0.425c-0.087-0.163-0.16-0.34-0.221-0.532l0.574-0.238c0.014,0.08,0.049,0.185,0.104,0.315
			c0.07,0.145,0.154,0.271,0.252,0.378c0.099,0.107,0.209,0.191,0.333,0.252c0.123,0.061,0.283,0.091,0.479,0.091
			c0.182,0,0.342-0.03,0.479-0.091c0.138-0.061,0.251-0.137,0.34-0.228c0.088-0.091,0.156-0.194,0.202-0.309
			c0.047-0.115,0.07-0.231,0.07-0.348c0-0.14-0.019-0.269-0.056-0.386c-0.038-0.117-0.104-0.218-0.2-0.302
			c-0.096-0.084-0.23-0.151-0.405-0.2S96.143,38.9,95.872,38.9v-0.462c0.225-0.004,0.414-0.029,0.57-0.074
			c0.156-0.044,0.284-0.107,0.382-0.189c0.098-0.082,0.168-0.178,0.21-0.291c0.042-0.112,0.063-0.235,0.063-0.371
			c0-0.145-0.022-0.273-0.067-0.385c-0.044-0.112-0.106-0.203-0.188-0.273s-0.18-0.124-0.294-0.161
			c-0.114-0.037-0.237-0.056-0.367-0.056c-0.131,0-0.251,0.02-0.361,0.059c-0.109,0.04-0.207,0.094-0.294,0.161
			c-0.086,0.068-0.157,0.148-0.213,0.242c-0.057,0.093-0.096,0.196-0.119,0.308c-0.019,0.093-0.028,0.172-0.028,0.238L94.528,37.542
			z"/>
		<path fill="#FFFFFF" d="M104.251,38.725v0.462h-5.677v-0.462H104.251z M98.91,37.871c0.294-0.028,0.57-0.078,0.829-0.148
			c0.26-0.07,0.487-0.161,0.683-0.271c0.196-0.11,0.354-0.237,0.477-0.38c0.121-0.143,0.188-0.302,0.203-0.475h-1.939v-0.448h1.967
			v-0.637h0.574v0.637h1.967v0.448h-1.945c0.014,0.173,0.08,0.332,0.199,0.475s0.277,0.27,0.476,0.38s0.429,0.201,0.689,0.271
			c0.262,0.07,0.539,0.12,0.833,0.148l-0.175,0.441c-0.262-0.028-0.511-0.071-0.749-0.129c-0.238-0.059-0.458-0.133-0.661-0.224
			s-0.384-0.198-0.543-0.322c-0.158-0.124-0.284-0.262-0.378-0.417c-0.098,0.154-0.225,0.293-0.382,0.417
			c-0.156,0.124-0.336,0.231-0.538,0.322c-0.203,0.091-0.425,0.166-0.665,0.224c-0.241,0.058-0.489,0.102-0.746,0.129L98.91,37.871z
			 M101.405,39.719c0.681,0,1.208,0.089,1.583,0.266s0.562,0.437,0.562,0.777c0,0.341-0.188,0.6-0.562,0.777
			c-0.375,0.177-0.902,0.266-1.583,0.266c-0.68,0-1.208-0.089-1.583-0.266c-0.375-0.178-0.562-0.437-0.562-0.777
			c0-0.34,0.188-0.6,0.562-0.777S100.726,39.719,101.405,39.719z M101.405,41.371c0.496,0,0.882-0.053,1.158-0.158
			c0.275-0.105,0.414-0.255,0.414-0.452c0-0.196-0.139-0.347-0.414-0.455c-0.276-0.107-0.662-0.161-1.158-0.161
			c-0.5,0-0.887,0.054-1.161,0.161c-0.273,0.107-0.41,0.259-0.41,0.455c0,0.196,0.137,0.347,0.41,0.452
			C100.519,41.318,100.905,41.371,101.405,41.371z"/>
		<path fill="#FFFFFF" d="M89.964,46.212c0,0.448-0.049,0.881-0.146,1.298c-0.099,0.418-0.26,0.813-0.483,1.187
			c-0.224,0.374-0.516,0.722-0.875,1.047c-0.359,0.324-0.801,0.615-1.323,0.871l-0.314-0.448c0.42-0.206,0.785-0.434,1.096-0.686
			c0.31-0.252,0.57-0.525,0.78-0.819s0.371-0.607,0.482-0.938c0.112-0.332,0.183-0.682,0.21-1.05h-2.289v-0.462H89.964z
			 M91.994,45.54v6.272H91.42v-3.29h-1.47v-0.469h1.47V45.54H91.994z"/>
		<path fill="#FFFFFF" d="M98.959,48.746v0.462h-2.52v1.267h-0.574v-1.267h-2.61v-0.462H98.959z M94.563,51.203h3.766v0.469h-4.347
			V49.88h0.581V51.203z M98.218,48.032h-4.222v-2.205h4.222V48.032z M97.65,46.289h-3.087v1.281h3.087V46.289z"/>
		<path fill="#FFFFFF" d="M105.392,50.461v0.469h-5.677v-0.469h2.205v-2.247h0.574v2.247H105.392z M104.139,46.632h-3.829v-0.469
			h4.403v0.623c0,0.196-0.001,0.398-0.004,0.605c-0.002,0.208-0.01,0.429-0.024,0.665c-0.014,0.235-0.037,0.487-0.069,0.756
			c-0.033,0.269-0.08,0.561-0.141,0.878l-0.573-0.063c0.061-0.298,0.106-0.58,0.14-0.843c0.032-0.264,0.056-0.512,0.07-0.746
			c0.014-0.233,0.021-0.453,0.024-0.658c0.002-0.205,0.003-0.403,0.003-0.595V46.632z"/>
		<path fill="#FFFFFF" d="M111.818,48.697v0.427h-5.67v-0.427h2.555V48.27c-0.569-0.019-1.002-0.095-1.298-0.228
			c-0.297-0.133-0.445-0.328-0.445-0.584c0-0.271,0.172-0.474,0.514-0.609c0.343-0.135,0.847-0.203,1.514-0.203
			c0.661,0,1.163,0.068,1.506,0.203c0.342,0.135,0.513,0.338,0.513,0.609c0,0.257-0.147,0.452-0.442,0.584s-0.724,0.209-1.286,0.228
			v0.427H111.818z M111.496,46.401h-5.061v-0.427h2.268v-0.553h0.574v0.553h2.219V46.401z M107.422,51.315h3.864v0.427h-4.438v-1.33
			h3.668v-0.469h-3.689V49.53h4.264v1.281h-3.669V51.315z M107.556,47.458c0,0.285,0.478,0.427,1.435,0.427
			c0.947,0,1.421-0.142,1.421-0.427s-0.474-0.427-1.421-0.427C108.033,47.031,107.556,47.173,107.556,47.458z"/>
	</g>
	<g>
		<path d="M185.346,83.996c0,0.348-0.046,0.674-0.138,0.978c-0.093,0.304-0.236,0.583-0.431,0.837s-0.445,0.482-0.753,0.684
			c-0.309,0.202-0.678,0.375-1.11,0.519l-0.204-0.396c0.456-0.144,0.831-0.32,1.125-0.528s0.523-0.442,0.688-0.702l-1.752,0.132
			l-0.09-0.402l2.022-0.09c0.068-0.192,0.112-0.402,0.133-0.63h-1.878v-0.402H185.346z M187.164,88.423v0.402h-3.54v-1.662h0.492
			v1.26H187.164z M186.51,85.279v-1.71h0.492v3.99h-0.492v-1.878h-1.176v-0.402H186.51z"/>
		<path d="M190.415,86.629h-2.082v-2.628h0.469v0.906h1.157v-0.906h0.456v1.122h0.727v-1.452h0.456v3.816h-0.456v-1.962h-0.727
			V86.629z M189.959,85.292h-1.157v0.942h1.157V85.292z M192.791,88.423v0.402h-3.666v-1.722h0.492v1.32H192.791z M192.636,87.644
			h-0.475v-4.074h0.475V87.644z"/>
		<path d="M196.48,86.779c-0.292-0.124-0.548-0.302-0.768-0.534s-0.388-0.498-0.504-0.798c-0.112,0.324-0.282,0.61-0.51,0.858
			c-0.229,0.248-0.5,0.436-0.816,0.564l-0.264-0.39c0.2-0.076,0.383-0.18,0.549-0.312s0.308-0.282,0.426-0.45
			s0.209-0.351,0.273-0.549c0.063-0.198,0.096-0.403,0.096-0.615v-0.69h0.492v0.69c0,0.2,0.031,0.393,0.093,0.579
			c0.062,0.186,0.15,0.36,0.264,0.522c0.114,0.162,0.251,0.306,0.411,0.432s0.336,0.227,0.528,0.303L196.48,86.779z M198.173,88.423
			v0.402h-3.588v-1.65h0.492v1.248H198.173z M197.549,85.868h-1.086v-0.402h1.086v-0.708h-1.086v-0.396h1.086v-0.798h0.492v4.02
			h-0.492V85.868z"/>
		<path d="M201.509,86.689c-0.244-0.116-0.452-0.27-0.624-0.462s-0.305-0.408-0.396-0.648c-0.096,0.264-0.234,0.506-0.417,0.726
			c-0.182,0.22-0.398,0.394-0.65,0.522l-0.276-0.378c0.172-0.084,0.327-0.191,0.465-0.321s0.254-0.271,0.348-0.423
			c0.095-0.152,0.166-0.312,0.217-0.48c0.05-0.168,0.074-0.332,0.074-0.492v-0.792h0.475v0.792c0,0.16,0.022,0.318,0.068,0.474
			c0.046,0.156,0.114,0.303,0.204,0.441c0.091,0.138,0.201,0.264,0.333,0.378c0.133,0.114,0.282,0.209,0.45,0.285L201.509,86.689z
			 M203.83,88.423v0.402h-3.666v-1.716h0.492v1.314H203.83z M202.15,85.321h-0.84v-0.402h0.84v-1.248h0.456v3.774h-0.456V85.321z
			 M203.675,87.602H203.2v-4.038h0.475V87.602z"/>
		<path d="M205.39,87.253c0.244,0,0.469-0.003,0.672-0.009c0.204-0.006,0.398-0.015,0.582-0.027
			c0.185-0.012,0.363-0.029,0.537-0.051c0.175-0.022,0.354-0.049,0.537-0.081l0.055,0.402c-0.196,0.036-0.387,0.065-0.57,0.087
			c-0.185,0.022-0.373,0.039-0.567,0.051c-0.193,0.012-0.398,0.02-0.615,0.024c-0.216,0.004-0.451,0.006-0.708,0.006h-0.413v-3.6
			h2.489v0.402h-1.998v1.11h1.765v0.396h-1.765V87.253z M209.086,83.563v5.388h-0.492V86h-1.109v-0.408l1.109,0.006v-2.034H209.086z
			"/>
	</g>
	<g>
		<path fill="#636466" d="M103.43,160.561h-4.451c-1.565,0-2.834-1.27-2.834-2.835v-4.45c0-1.566,1.269-2.836,2.834-2.836h4.451
			c1.565,0,2.835,1.27,2.835,2.836v4.45C106.265,159.291,104.995,160.561,103.43,160.561z"/>
		<g>
			<path fill="#FFFFFF" d="M99.692,153.22h1.589c0.266,0,0.515,0.024,0.745,0.075c0.231,0.051,0.432,0.134,0.602,0.252
				c0.17,0.117,0.304,0.273,0.402,0.467c0.098,0.194,0.146,0.436,0.146,0.723c0,0.275-0.049,0.514-0.146,0.716
				c-0.099,0.202-0.231,0.37-0.399,0.501c-0.167,0.13-0.364,0.227-0.591,0.29c-0.228,0.063-0.471,0.095-0.732,0.095h-0.647v1.72
				h-0.968V153.22z M101.242,155.573c0.658,0,0.987-0.278,0.987-0.837c0-0.283-0.086-0.479-0.259-0.588
				c-0.172-0.109-0.426-0.164-0.762-0.164h-0.549v1.589H101.242z"/>
		</g>
	</g>
	<g>
		<path fill="#636466" d="M187.197,176.656h-4.451c-1.565,0-2.834-1.27-2.834-2.836v-4.45c0-1.565,1.269-2.835,2.834-2.835h4.451
			c1.565,0,2.835,1.27,2.835,2.835v4.45C190.032,175.387,188.763,176.656,187.197,176.656z"/>
		<g>
			<path fill="#FFFFFF" d="M183.459,169.314h1.589c0.266,0,0.515,0.025,0.745,0.075c0.231,0.05,0.432,0.134,0.602,0.251
				c0.17,0.118,0.304,0.274,0.402,0.469c0.098,0.193,0.146,0.434,0.146,0.722c0,0.274-0.049,0.513-0.146,0.716
				c-0.099,0.203-0.231,0.369-0.399,0.5c-0.167,0.131-0.364,0.229-0.591,0.291c-0.228,0.063-0.471,0.096-0.732,0.096h-0.647v1.719
				h-0.968V169.314z M185.009,171.668c0.658,0,0.987-0.279,0.987-0.837c0-0.283-0.086-0.479-0.259-0.589
				c-0.172-0.108-0.426-0.163-0.762-0.163h-0.549v1.589H185.009z"/>
		</g>
	</g>
	<g>
		<path fill="#636466" d="M157.056,145.544h-4.45c-1.565,0-2.835-1.269-2.835-2.835v-4.451c0-1.564,1.27-2.834,2.835-2.834h4.45
			c1.566,0,2.835,1.27,2.835,2.834v4.451C159.891,144.275,158.622,145.544,157.056,145.544z"/>
		<g>
			<path fill="#FFFFFF" d="M153.317,138.203h1.589c0.266,0,0.515,0.024,0.745,0.074c0.231,0.051,0.432,0.135,0.602,0.252
				s0.304,0.273,0.402,0.468c0.098,0.194,0.146,0.435,0.146,0.722c0,0.275-0.049,0.514-0.146,0.717
				c-0.099,0.202-0.231,0.369-0.399,0.5c-0.167,0.131-0.364,0.228-0.591,0.291c-0.228,0.062-0.471,0.095-0.732,0.095h-0.647v1.72
				h-0.968V138.203z M154.867,140.557c0.658,0,0.987-0.279,0.987-0.838c0-0.283-0.086-0.479-0.259-0.588
				c-0.172-0.109-0.426-0.164-0.762-0.164h-0.549v1.59H154.867z"/>
		</g>
	</g>
	<g>
		<path fill="#FFFFFF" d="M71.729,200.816l0.375,0.309l-2.306,2.797l-1.935-1.596l2.306-2.797l0.374,0.309l-0.904,1.098l1.186,0.977
			L71.729,200.816z M70.579,202.209l-1.186-0.977l-0.9,1.092l1.186,0.979L70.579,202.209z M72.564,204.188l-0.686-0.564
			l-1.809,2.193l-0.38-0.312l3.416-4.143l0.38,0.312l-1.344,1.629l0.685,0.566L72.564,204.188z"/>
		<path fill="#FFFFFF" d="M76.093,208.34l-1.699-1.4l-1.206,1.463l-0.38-0.312l1.206-1.463l-1.681-1.385l0.256-0.311l3.76,3.1
			L76.093,208.34z M74.79,206.076c-0.217-0.178-0.396-0.361-0.538-0.551c-0.143-0.191-0.245-0.379-0.309-0.562
			c-0.062-0.184-0.083-0.361-0.061-0.531c0.024-0.17,0.094-0.324,0.208-0.463s0.252-0.236,0.413-0.289
			c0.161-0.055,0.338-0.066,0.531-0.041c0.192,0.027,0.396,0.092,0.609,0.195c0.214,0.104,0.429,0.244,0.646,0.424
			c0.216,0.178,0.396,0.363,0.54,0.555c0.144,0.189,0.246,0.377,0.309,0.561c0.061,0.184,0.081,0.359,0.062,0.529
			c-0.021,0.17-0.089,0.324-0.203,0.463s-0.254,0.234-0.418,0.289c-0.165,0.055-0.342,0.068-0.533,0.043s-0.396-0.092-0.609-0.195
			C75.222,206.396,75.006,206.256,74.79,206.076z M76.038,204.562c-0.157-0.129-0.312-0.234-0.464-0.312
			c-0.152-0.078-0.297-0.131-0.435-0.156c-0.137-0.023-0.262-0.021-0.374,0.012c-0.111,0.031-0.206,0.094-0.282,0.188
			c-0.076,0.092-0.118,0.197-0.13,0.312c-0.011,0.115,0.01,0.24,0.06,0.371c0.049,0.131,0.127,0.264,0.233,0.398
			s0.238,0.266,0.396,0.396c0.156,0.129,0.312,0.234,0.466,0.314c0.154,0.08,0.3,0.131,0.439,0.154
			c0.137,0.023,0.262,0.02,0.375-0.012c0.111-0.033,0.206-0.096,0.282-0.188c0.076-0.094,0.12-0.197,0.13-0.312
			c0.01-0.117-0.011-0.24-0.061-0.369c-0.051-0.131-0.131-0.264-0.238-0.398C76.327,204.824,76.194,204.691,76.038,204.562z"/>
		<path fill="#FFFFFF" d="M77.965,210.256c0.204,0.154,0.412,0.305,0.625,0.449c0.212,0.146,0.426,0.283,0.643,0.41l-0.2,0.309
			c-0.271-0.15-0.535-0.311-0.796-0.484c-0.259-0.172-0.509-0.348-0.749-0.527c-0.241-0.182-0.471-0.359-0.688-0.533
			c-0.219-0.176-0.42-0.338-0.605-0.492l0.216-0.357c0.171,0.141,0.353,0.289,0.546,0.447c0.195,0.156,0.4,0.318,0.614,0.486
			l0.687-0.834l-0.855-0.705l1.401-1.699l2.097,1.729l-1.401,1.699l-0.861-0.711L77.965,210.256z M78.031,208.43l1.338,1.104
			l0.897-1.088l-1.338-1.104L78.031,208.43z M82.198,208.848l-3.428,4.158l-0.38-0.314l3.428-4.156L82.198,208.848z"/>
		<path fill="#FFFFFF" d="M84.093,216l-0.256,0.311l-3.77-3.107l0.256-0.311l1.69,1.395l0.645-0.783L81.44,212.5l1.058-1.283
			l2.464,2.031l0.534-0.648l-2.473-2.037l0.256-0.311l2.847,2.348l-1.042,1.264l-2.463-2.031l-0.554,0.672l2.551,2.104l-0.252,0.305
			l-1.328-1.096l-0.645,0.783L84.093,216z"/>
		<path fill="#FFFFFF" d="M86.663,218.354l-0.283,0.342l-1.833-1.512l0.283-0.342l0.754,0.621l1.915-2.324
			c0.028-0.033,0.061-0.072,0.098-0.117s0.071-0.084,0.103-0.115l-1.07,0.043l-0.002-0.459l1.562-0.035l0.338,0.277l-2.53,3.07
			L86.663,218.354z"/>
		<path fill="#FFFFFF" d="M89.542,220.672l-0.31,0.375l-2.282-1.883l0.245-0.297l2.1-0.16c0.168-0.021,0.325-0.045,0.472-0.066
			c0.146-0.023,0.28-0.057,0.406-0.098c0.124-0.043,0.239-0.096,0.343-0.158c0.104-0.062,0.196-0.143,0.277-0.242
			c0.081-0.104,0.137-0.205,0.167-0.307c0.031-0.1,0.037-0.197,0.021-0.293c-0.017-0.098-0.052-0.189-0.107-0.275
			c-0.056-0.088-0.127-0.166-0.213-0.238c-0.086-0.07-0.177-0.125-0.271-0.162c-0.094-0.035-0.188-0.053-0.282-0.053
			c-0.093,0-0.185,0.016-0.272,0.043c-0.088,0.029-0.171,0.074-0.247,0.135c-0.063,0.053-0.114,0.102-0.152,0.146l-0.358-0.412
			c0.15-0.141,0.308-0.242,0.471-0.309c0.163-0.064,0.325-0.098,0.489-0.098c0.164-0.002,0.326,0.031,0.487,0.094
			c0.16,0.062,0.312,0.154,0.458,0.273c0.142,0.117,0.259,0.25,0.349,0.396c0.092,0.148,0.15,0.301,0.176,0.461
			c0.026,0.158,0.019,0.318-0.025,0.479c-0.044,0.162-0.129,0.318-0.253,0.469c-0.104,0.127-0.222,0.229-0.351,0.307
			c-0.13,0.076-0.267,0.137-0.412,0.182c-0.146,0.043-0.302,0.076-0.465,0.102c-0.165,0.025-0.334,0.047-0.509,0.062l-1.724,0.158
			c0.081,0.035,0.157,0.076,0.231,0.121s0.141,0.092,0.199,0.141L89.542,220.672z"/>
		<path fill="#FFFFFF" d="M93.255,224.363l-0.244,0.295l-2.819-2.324l0.874-1.061l2.302,1.898l0.352-0.426l-2.311-1.904l0.244-0.297
			l2.689,2.217l-0.828,1.006l-2.301-1.898l-0.397,0.482L93.255,224.363z M94.85,219.619c-0.219,0.266-0.462,0.469-0.729,0.609
			s-0.552,0.225-0.858,0.252c-0.305,0.029-0.628,0.002-0.968-0.078c-0.34-0.082-0.691-0.213-1.054-0.398l0.113-0.42
			c0.616,0.316,1.165,0.473,1.646,0.471c0.482-0.002,0.876-0.158,1.182-0.465l-1.478-1.219l0.256-0.311L94.85,219.619z
			 M94.51,222.559l-0.379-0.312l1.748-2.121l0.379,0.312L94.51,222.559z"/>
	</g>
	<g>
		<path fill="#FFFFFF" d="M53.748,109.946h5.377v0.468h-2.846v0.732h2.58v0.456h-4.992v-0.456h2.012v-0.732h-2.131V109.946z
			 M54.371,114.327v-2.046h3.312v2.046H54.371z M57.301,113.871v-1.134h-2.545v1.134H57.301z"/>
		<path fill="#FFFFFF" d="M54.805,105.873v3.12h-0.396v-1.314h-0.66v-0.492h0.66v-1.314H54.805z M55.607,105.062H53.76v-0.492h4.051
			v0.492H56.01v0.912h-0.402V105.062z M56.1,106.196c0.148,0,0.285,0.031,0.408,0.093c0.125,0.062,0.23,0.148,0.318,0.257
			c0.088,0.11,0.156,0.241,0.203,0.392c0.049,0.152,0.072,0.317,0.072,0.497s-0.023,0.346-0.072,0.5
			c-0.047,0.154-0.115,0.286-0.203,0.395c-0.088,0.11-0.193,0.196-0.318,0.258c-0.123,0.062-0.26,0.092-0.408,0.092
			s-0.283-0.031-0.404-0.092c-0.123-0.062-0.227-0.148-0.314-0.258c-0.088-0.109-0.156-0.241-0.205-0.395
			c-0.047-0.153-0.072-0.32-0.072-0.5s0.025-0.345,0.072-0.497c0.049-0.151,0.117-0.282,0.205-0.392
			c0.088-0.109,0.191-0.195,0.314-0.257C55.816,106.228,55.951,106.196,56.1,106.196z M56.1,108.212
			c0.189,0,0.338-0.073,0.451-0.219c0.111-0.146,0.168-0.333,0.168-0.561s-0.057-0.415-0.168-0.561
			c-0.113-0.146-0.262-0.219-0.451-0.219c-0.184,0-0.332,0.073-0.443,0.219s-0.168,0.333-0.168,0.561s0.057,0.415,0.168,0.561
			C55.768,108.14,55.916,108.212,56.1,108.212z M58.607,104.438h0.402v3.588h-1.547v-0.492h1.145V104.438z"/>
		<path fill="#FFFFFF" d="M58.062,98.601h0.402v4.884h-0.402v-2.19h-1.014v1.578h-1.662V99.68h-0.84v3.204h-0.402v-3.69h1.637v3.192
			h0.871v-3.306h0.396v1.722h1.014V98.601z"/>
	</g>
	<line fill="none" stroke="#808285" stroke-width="12" stroke-miterlimit="10" x1="53.475" y1="185.896" x2="11.696" y2="233.898"/>
	<g>
		<path fill="#FFFFFF" d="M13.808,231.479c0.097-0.018,0.199-0.033,0.312-0.051c0.112-0.014,0.23-0.025,0.352-0.035
			c0.121-0.008,0.243-0.012,0.364-0.01c0.122,0,0.24,0.006,0.354,0.016l-0.08,0.408c-0.165-0.012-0.337-0.016-0.515-0.01
			c-0.179,0.006-0.357,0.02-0.536,0.041c-0.178,0.023-0.354,0.051-0.526,0.084c-0.174,0.035-0.336,0.074-0.484,0.119
			c0.024-0.154,0.043-0.318,0.055-0.496c0.011-0.176,0.017-0.354,0.014-0.533c-0.001-0.18-0.011-0.359-0.027-0.537
			c-0.018-0.178-0.043-0.346-0.076-0.51l0.396-0.131c0.024,0.111,0.044,0.229,0.062,0.35c0.016,0.121,0.028,0.242,0.036,0.363
			s0.011,0.238,0.01,0.352s-0.004,0.219-0.009,0.314l3.053-3.475l0.301,0.264L13.808,231.479z"/>
		<path fill="#FFFFFF" d="M19.082,223.541c0.141,0.123,0.245,0.264,0.317,0.418c0.069,0.156,0.105,0.318,0.106,0.486
			c0,0.17-0.032,0.338-0.099,0.506c-0.065,0.168-0.166,0.33-0.301,0.484s-0.282,0.273-0.443,0.363
			c-0.159,0.09-0.322,0.143-0.488,0.162s-0.331,0.006-0.493-0.045c-0.165-0.051-0.315-0.137-0.456-0.26
			c-0.139-0.121-0.243-0.26-0.313-0.416c-0.071-0.154-0.106-0.316-0.106-0.48c-0.001-0.166,0.032-0.334,0.099-0.506
			c0.068-0.17,0.169-0.332,0.304-0.486c0.135-0.152,0.282-0.273,0.44-0.361c0.159-0.086,0.321-0.141,0.488-0.164
			c0.165-0.021,0.329-0.008,0.493,0.043C18.793,223.334,18.943,223.42,19.082,223.541z M17.543,225.289
			c0.097,0.084,0.198,0.143,0.307,0.178c0.108,0.033,0.219,0.045,0.329,0.033c0.111-0.012,0.22-0.045,0.325-0.1
			c0.104-0.057,0.202-0.137,0.291-0.238c0.087-0.1,0.152-0.205,0.196-0.318c0.043-0.113,0.062-0.225,0.06-0.336
			c-0.002-0.111-0.028-0.221-0.076-0.322c-0.048-0.104-0.12-0.197-0.217-0.281c-0.093-0.082-0.194-0.141-0.305-0.176
			c-0.109-0.035-0.219-0.047-0.328-0.035c-0.11,0.014-0.218,0.049-0.324,0.105c-0.106,0.059-0.204,0.137-0.291,0.234
			c-0.089,0.104-0.154,0.209-0.196,0.32c-0.042,0.113-0.062,0.223-0.061,0.334c0.001,0.109,0.026,0.217,0.075,0.32
			C17.378,225.113,17.45,225.207,17.543,225.289z M19.626,222.342l0.563,0.496l0.519-0.592l0.303,0.266l-0.519,0.592l0.626,0.549
			l-0.324,0.371L18.4,221.92l0.324-0.369l0.6,0.527l0.519-0.592l0.302,0.266L19.626,222.342z M20.121,225.053
			c0.179-0.205,0.357-0.373,0.534-0.51c0.178-0.133,0.349-0.23,0.515-0.289c0.166-0.061,0.323-0.08,0.471-0.059
			c0.149,0.021,0.284,0.086,0.403,0.189c0.121,0.107,0.2,0.23,0.237,0.373c0.04,0.145,0.04,0.301,0.003,0.475
			c-0.037,0.172-0.109,0.355-0.22,0.549c-0.109,0.193-0.254,0.393-0.433,0.598c-0.18,0.205-0.359,0.375-0.539,0.51
			s-0.353,0.232-0.519,0.291s-0.322,0.078-0.47,0.059c-0.146-0.02-0.279-0.082-0.4-0.188c-0.119-0.105-0.2-0.23-0.24-0.375
			s-0.041-0.303-0.004-0.475s0.111-0.355,0.224-0.551C19.796,225.457,19.941,225.256,20.121,225.053z M21.343,226.125
			c0.264-0.301,0.429-0.572,0.495-0.814s0.026-0.428-0.119-0.555c-0.147-0.131-0.337-0.146-0.567-0.049
			c-0.23,0.1-0.479,0.299-0.742,0.6c-0.265,0.299-0.43,0.572-0.499,0.814s-0.029,0.43,0.118,0.559
			c0.146,0.129,0.335,0.143,0.568,0.045C20.83,226.625,21.078,226.426,21.343,226.125z"/>
		<path fill="#FFFFFF" d="M21.751,220.303c0.187,0.164,0.381,0.305,0.585,0.418c0.202,0.115,0.408,0.199,0.618,0.256
			c0.209,0.057,0.419,0.08,0.629,0.074c0.211-0.008,0.417-0.049,0.619-0.129l0.095,0.467c-0.286,0.102-0.584,0.137-0.893,0.111
			c-0.31-0.027-0.616-0.109-0.92-0.248c0.217,0.312,0.367,0.629,0.455,0.953c0.089,0.326,0.101,0.646,0.039,0.965l-0.477-0.02
			c0.045-0.215,0.054-0.434,0.025-0.652s-0.089-0.434-0.183-0.646c-0.092-0.213-0.216-0.42-0.37-0.621
			c-0.153-0.201-0.332-0.391-0.536-0.57l-0.315-0.277l-0.688,0.785l-0.302-0.266l1.646-1.875l0.302,0.264l-0.646,0.736
			L21.751,220.303z M22.635,217.088l4.045,3.551l-0.312,0.355l-2.106-1.848l-0.472,0.535l1.907,1.676l-0.301,0.342l-3.75-3.293
			l0.301-0.342l1.541,1.354l0.472-0.537l-1.637-1.438L22.635,217.088z"/>
		<path fill="#FFFFFF" d="M25.585,215.9c0.187,0.164,0.395,0.297,0.626,0.398c0.229,0.102,0.466,0.17,0.706,0.209
			c0.241,0.039,0.48,0.047,0.718,0.023c0.238-0.023,0.456-0.08,0.654-0.172l0.104,0.482c-0.316,0.131-0.669,0.189-1.054,0.176
			s-0.765-0.1-1.141-0.26c0.225,0.363,0.375,0.74,0.451,1.133c0.077,0.391,0.072,0.76-0.013,1.105l-0.501-0.041
			c0.059-0.209,0.081-0.436,0.071-0.68c-0.01-0.242-0.053-0.484-0.128-0.727s-0.182-0.475-0.319-0.695
			c-0.139-0.223-0.303-0.418-0.495-0.588l-0.726-0.637l0.32-0.365L25.585,215.9z M26.154,213.08l4.054,3.559l-0.325,0.369
			l-4.054-3.559L26.154,213.08z"/>
		<path fill="#FFFFFF" d="M30.972,212.096l-1.663,1.893l-1.88-1.65l1.663-1.895L30.972,212.096z M29.068,211.07l-1.021,1.164
			l1.285,1.127l1.021-1.162L29.068,211.07z M32.712,211.475l-0.324,0.371l-2.903-2.549l0.324-0.371L32.712,211.475z M33.523,211.973
			l0.297,0.26l-2.392,2.723l-1.275-1.119l0.325-0.369l0.979,0.859L33.523,211.973z"/>
		<path fill="#FFFFFF" d="M31.979,207.035c0.138-0.156,0.288-0.281,0.453-0.375c0.164-0.092,0.329-0.15,0.496-0.172
			c0.166-0.021,0.332-0.008,0.497,0.041c0.164,0.049,0.318,0.135,0.46,0.26c0.142,0.123,0.247,0.266,0.317,0.422
			c0.069,0.158,0.104,0.32,0.104,0.488c-0.001,0.166-0.036,0.338-0.107,0.514s-0.175,0.34-0.312,0.498
			c-0.138,0.156-0.288,0.279-0.451,0.371c-0.162,0.092-0.328,0.148-0.496,0.174c-0.167,0.023-0.333,0.01-0.498-0.039
			s-0.318-0.135-0.46-0.26s-0.248-0.266-0.317-0.422c-0.069-0.158-0.104-0.32-0.103-0.49s0.038-0.34,0.107-0.514
			S31.842,207.193,31.979,207.035z M32.3,207.316c-0.092,0.105-0.161,0.215-0.21,0.33c-0.047,0.115-0.07,0.229-0.068,0.342
			c0.001,0.111,0.025,0.221,0.071,0.324c0.047,0.105,0.116,0.199,0.209,0.279c0.093,0.082,0.193,0.139,0.304,0.172
			c0.108,0.031,0.219,0.041,0.33,0.027c0.11-0.016,0.221-0.053,0.329-0.113c0.109-0.061,0.211-0.143,0.303-0.248
			s0.16-0.217,0.206-0.332c0.047-0.117,0.069-0.229,0.07-0.34c-0.001-0.113-0.024-0.221-0.07-0.326
			c-0.047-0.104-0.116-0.197-0.209-0.277c-0.093-0.082-0.193-0.139-0.304-0.172c-0.108-0.033-0.22-0.041-0.331-0.029
			c-0.113,0.014-0.223,0.051-0.331,0.113C32.492,207.129,32.392,207.211,32.3,207.316z M33.426,204.797l4.054,3.559l-0.324,0.369
			l-4.054-3.559L33.426,204.797z M33.41,210.572c0.161-0.184,0.335-0.383,0.523-0.6c0.187-0.217,0.374-0.443,0.565-0.678
			c0.19-0.234,0.377-0.477,0.563-0.727c0.184-0.25,0.357-0.502,0.52-0.752l0.303,0.209c-0.158,0.266-0.328,0.525-0.508,0.779
			s-0.363,0.498-0.548,0.732c-0.186,0.234-0.369,0.459-0.552,0.67s-0.354,0.41-0.516,0.592L33.41,210.572z"/>
		<path fill="#FFFFFF" d="M38.64,202.004c-0.161,0.137-0.332,0.256-0.511,0.361c-0.181,0.105-0.366,0.189-0.556,0.256
			c-0.19,0.064-0.379,0.107-0.565,0.129s-0.365,0.014-0.534-0.023c0.06,0.162,0.092,0.338,0.096,0.523s-0.014,0.377-0.054,0.574
			c-0.039,0.197-0.101,0.393-0.185,0.588s-0.183,0.383-0.296,0.559l-0.407-0.117c0.134-0.201,0.245-0.416,0.332-0.646
			c0.088-0.229,0.145-0.451,0.17-0.666s0.016-0.414-0.03-0.598s-0.134-0.332-0.263-0.445l-0.177-0.154l0.329-0.375l0.181,0.158
			c0.127,0.111,0.283,0.178,0.47,0.197c0.187,0.021,0.386,0.004,0.596-0.047c0.211-0.053,0.424-0.135,0.639-0.25
			s0.413-0.252,0.597-0.41L38.64,202.004z M38.109,203.838l0.46,0.404l1.092-1.244l0.298,0.26l-0.538,0.613l0.757,0.666l0.57-0.65
			l0.298,0.262l-2.565,2.922l-0.298-0.262l0.57-0.648l-0.757-0.666l-0.539,0.613l-0.298-0.26l1.085-1.236l-0.46-0.404l-1.444,1.646
			l-0.298-0.262l3.21-3.656l0.298,0.262L38.109,203.838z M39.101,204.236l-0.784,0.893l0.757,0.666l0.784-0.893L39.101,204.236z"/>
		<path fill="#FFFFFF" d="M41.417,202.334c-0.476-0.209-0.936-0.51-1.382-0.9c-0.441-0.389-0.797-0.805-1.067-1.248
			c-0.269-0.445-0.481-0.918-0.636-1.422l0.343-0.154c0.151,0.484,0.369,0.934,0.655,1.35c0.286,0.418,0.622,0.795,1.006,1.133
			c0.386,0.338,0.804,0.621,1.256,0.854c0.451,0.23,0.925,0.389,1.421,0.473l-0.104,0.365
			C42.39,202.693,41.894,202.545,41.417,202.334z"/>
		<path fill="#FFFFFF" d="M39.75,198.539l1.35-1.537l2.489,2.186l-1.35,1.537L39.75,198.539z M42.252,200.129L43,199.277
			l-1.912-1.678l-0.748,0.852L42.252,200.129z M42.171,194.836l4.04,3.549l-0.309,0.352l-2.138-1.877l-0.483,0.551l1.939,1.701
			l-0.301,0.344l-3.752-3.295l0.301-0.342l1.512,1.326l0.483-0.551l-1.602-1.406L42.171,194.836z"/>
		<path fill="#FFFFFF" d="M45.652,192.473l-2.058,2.344l-0.298-0.262l0.866-0.986l-0.496-0.436l0.325-0.369l0.496,0.436l0.866-0.988
			L45.652,192.473z M46.413,193.57c0.111,0.098,0.193,0.211,0.245,0.34c0.053,0.129,0.075,0.262,0.068,0.402
			c-0.005,0.141-0.04,0.283-0.105,0.43c-0.063,0.146-0.154,0.285-0.273,0.422c-0.118,0.135-0.246,0.244-0.384,0.326
			c-0.137,0.084-0.274,0.139-0.414,0.162c-0.138,0.025-0.273,0.02-0.408-0.016c-0.134-0.035-0.257-0.102-0.368-0.199
			s-0.192-0.211-0.243-0.338s-0.072-0.26-0.066-0.4c0.007-0.141,0.042-0.285,0.107-0.432s0.157-0.287,0.275-0.422
			c0.119-0.137,0.246-0.244,0.382-0.326c0.137-0.082,0.274-0.137,0.412-0.16c0.139-0.025,0.273-0.02,0.406,0.014
			C46.18,193.408,46.302,193.473,46.413,193.57z M45.083,195.086c0.142,0.125,0.302,0.168,0.482,0.133
			c0.18-0.037,0.346-0.141,0.496-0.311c0.151-0.172,0.231-0.35,0.245-0.533c0.011-0.184-0.054-0.338-0.195-0.461
			c-0.138-0.121-0.297-0.164-0.478-0.129c-0.18,0.037-0.346,0.139-0.497,0.311c-0.15,0.172-0.23,0.35-0.244,0.531
			C44.882,194.812,44.945,194.965,45.083,195.086z M46.791,192.395l-1.388-1.219l0.324-0.371l3.043,2.672l-0.324,0.371l-1.353-1.188
			l-0.602,0.684l-0.303-0.264L46.791,192.395z M49.457,193.904l0.302,0.266l-2.367,2.695l-1.163-1.02l0.325-0.371l0.861,0.756
			L49.457,193.904z"/>
		<path fill="#FFFFFF" d="M50.605,193.715c-0.149-0.477-0.368-0.926-0.654-1.346c-0.287-0.42-0.623-0.797-1.008-1.135
			s-0.803-0.621-1.253-0.85c-0.452-0.229-0.926-0.389-1.423-0.479l0.105-0.355c0.521,0.086,1.02,0.234,1.495,0.443
			c0.476,0.211,0.934,0.51,1.376,0.898c0.445,0.389,0.803,0.807,1.072,1.252c0.271,0.443,0.48,0.918,0.633,1.426L50.605,193.715z"/>
		<path fill="#FFFFFF" d="M50.698,185.125l2.386,2.094l-0.325,0.371l-0.582-0.512l-0.898,1.023c0.03,0.197,0.017,0.395-0.042,0.594
			c-0.058,0.199-0.164,0.389-0.32,0.564c-0.132,0.15-0.277,0.268-0.438,0.352c-0.158,0.084-0.321,0.133-0.49,0.148
			c-0.167,0.016-0.334-0.002-0.499-0.055c-0.166-0.053-0.319-0.141-0.464-0.268c-0.142-0.125-0.25-0.266-0.322-0.424
			c-0.073-0.156-0.112-0.318-0.118-0.486c-0.005-0.166,0.024-0.334,0.086-0.502c0.063-0.17,0.161-0.328,0.293-0.479
			c0.156-0.178,0.329-0.309,0.521-0.393s0.389-0.123,0.588-0.119l0.895-1.018l-0.59-0.52L50.698,185.125z M50.596,188.98
			c0.087-0.1,0.151-0.207,0.191-0.32c0.041-0.113,0.061-0.225,0.056-0.338s-0.031-0.223-0.082-0.328s-0.125-0.201-0.22-0.283
			c-0.094-0.082-0.194-0.141-0.307-0.178c-0.11-0.037-0.223-0.049-0.333-0.037c-0.111,0.012-0.22,0.045-0.327,0.1
			c-0.106,0.055-0.204,0.133-0.291,0.232s-0.15,0.203-0.189,0.314c-0.04,0.113-0.059,0.225-0.056,0.336s0.03,0.221,0.08,0.326
			c0.051,0.105,0.122,0.199,0.216,0.281c0.095,0.082,0.198,0.145,0.311,0.18c0.111,0.037,0.223,0.049,0.335,0.039
			c0.113-0.01,0.221-0.043,0.327-0.096C50.412,189.154,50.509,189.078,50.596,188.98z M51.874,186.812l-0.608-0.533l-0.756,0.861
			c0.062,0.027,0.121,0.059,0.177,0.094c0.056,0.037,0.11,0.078,0.165,0.125c0.059,0.051,0.107,0.102,0.15,0.152
			s0.081,0.105,0.116,0.162L51.874,186.812z M50.933,190.113l2.372-2.699l1.442,1.266l-0.325,0.369l-1.141-1.002l-2.047,2.332
			L50.933,190.113z"/>
	</g>
	<g>
		<path fill="#FFFFFF" d="M54.954,32.342h0.75v-0.786h0.402v0.786h0.834v0.492h-3.186v-0.492h0.798v-0.786h0.401V32.342z
			 M55.336,33.603c0.188,0,0.358,0.035,0.515,0.105c0.155,0.07,0.289,0.168,0.4,0.295c0.112,0.126,0.199,0.274,0.261,0.445
			s0.093,0.358,0.093,0.562c0,0.205-0.031,0.393-0.093,0.565s-0.148,0.321-0.261,0.445c-0.111,0.125-0.245,0.222-0.4,0.292
			c-0.156,0.07-0.327,0.105-0.515,0.105c-0.184,0-0.354-0.035-0.509-0.105c-0.156-0.07-0.289-0.167-0.398-0.292
			c-0.109-0.124-0.195-0.272-0.258-0.445c-0.062-0.172-0.093-0.361-0.093-0.565c0-0.204,0.031-0.392,0.093-0.562
			c0.062-0.17,0.148-0.319,0.258-0.445c0.109-0.126,0.242-0.225,0.398-0.295C54.982,33.638,55.152,33.603,55.336,33.603z
			 M55.333,35.931c0.128,0,0.243-0.023,0.348-0.069c0.104-0.046,0.194-0.11,0.27-0.191c0.076-0.082,0.136-0.179,0.178-0.29
			c0.042-0.112,0.062-0.235,0.062-0.371c0-0.131-0.021-0.254-0.062-0.368s-0.102-0.211-0.178-0.293
			c-0.075-0.082-0.166-0.146-0.27-0.191c-0.104-0.046-0.22-0.069-0.348-0.069c-0.124,0-0.239,0.023-0.346,0.069
			c-0.105,0.046-0.195,0.109-0.27,0.191c-0.074,0.082-0.132,0.179-0.174,0.293s-0.063,0.236-0.063,0.368
			c0,0.136,0.021,0.259,0.063,0.371c0.042,0.111,0.1,0.208,0.174,0.29c0.074,0.082,0.164,0.146,0.27,0.191
			C55.094,35.908,55.209,35.931,55.333,35.931z M57.114,34.052c0-0.272,0.022-0.517,0.066-0.735
			c0.044-0.218,0.108-0.404,0.194-0.558c0.086-0.154,0.191-0.272,0.316-0.354c0.126-0.082,0.269-0.123,0.428-0.123
			c0.16,0,0.302,0.042,0.425,0.123c0.124,0.082,0.229,0.2,0.314,0.354c0.086,0.154,0.151,0.34,0.197,0.558
			c0.046,0.218,0.069,0.463,0.069,0.735c0,0.272-0.023,0.518-0.069,0.738c-0.046,0.22-0.111,0.407-0.197,0.561
			c-0.086,0.154-0.19,0.272-0.314,0.354c-0.123,0.082-0.265,0.123-0.425,0.123c-0.159,0-0.302-0.041-0.428-0.123
			c-0.125-0.082-0.23-0.2-0.316-0.354c-0.086-0.154-0.15-0.341-0.194-0.561C57.137,34.57,57.114,34.325,57.114,34.052z
			 M58.74,34.052c0-0.4-0.055-0.713-0.165-0.939c-0.111-0.226-0.263-0.339-0.456-0.339c-0.196,0-0.35,0.113-0.458,0.339
			c-0.108,0.226-0.163,0.539-0.163,0.939c0,0.4,0.055,0.714,0.163,0.942s0.262,0.342,0.458,0.342c0.193,0,0.345-0.114,0.456-0.342
			C58.686,34.767,58.74,34.453,58.74,34.052z"/>
		<path fill="#FFFFFF" d="M53.748,26.408h5.383v0.474h-2.803v0.714h2.538v0.456h-4.991v-0.456h2.052v-0.714h-2.179V26.408z
			 M55.206,29.408c0.248,0,0.486-0.024,0.715-0.072c0.228-0.048,0.438-0.12,0.633-0.216c0.194-0.096,0.368-0.216,0.521-0.36
			c0.154-0.144,0.281-0.312,0.381-0.504l0.379,0.288c-0.148,0.264-0.348,0.488-0.598,0.672s-0.535,0.324-0.854,0.42
			c0.368,0.092,0.691,0.231,0.972,0.417s0.502,0.419,0.666,0.699l-0.372,0.3c-0.108-0.192-0.245-0.361-0.411-0.507
			s-0.354-0.268-0.563-0.366c-0.21-0.098-0.439-0.172-0.688-0.222c-0.248-0.05-0.508-0.075-0.78-0.075h-0.42v1.044h-0.401V28.43
			h0.401v0.978H55.206z"/>
		<path fill="#FFFFFF" d="M54.288,25.196v-0.558h4.398v0.558H54.288z"/>
		<path fill="#FFFFFF" d="M58.765,21.776c0,0.272-0.051,0.525-0.153,0.759c-0.102,0.234-0.251,0.437-0.447,0.609
			c-0.195,0.172-0.435,0.306-0.717,0.402c-0.282,0.096-0.601,0.144-0.957,0.144c-0.355,0-0.675-0.049-0.957-0.147
			c-0.281-0.098-0.521-0.234-0.72-0.408c-0.198-0.174-0.349-0.38-0.453-0.618c-0.104-0.238-0.156-0.497-0.156-0.777
			c0-0.132,0.016-0.258,0.046-0.378c0.029-0.12,0.07-0.231,0.122-0.333c0.053-0.102,0.11-0.194,0.175-0.276
			c0.063-0.082,0.132-0.155,0.204-0.219l0.359,0.3c-0.124,0.116-0.225,0.247-0.303,0.393s-0.117,0.315-0.117,0.507
			c0,0.208,0.041,0.397,0.123,0.567s0.2,0.316,0.354,0.438c0.153,0.122,0.341,0.216,0.561,0.282s0.468,0.099,0.744,0.099
			c0.275,0,0.526-0.032,0.75-0.096s0.414-0.155,0.57-0.273c0.155-0.118,0.275-0.261,0.359-0.429s0.126-0.358,0.126-0.57
			c0-0.212-0.044-0.4-0.132-0.564s-0.208-0.316-0.36-0.456l0.349-0.306c0.204,0.176,0.359,0.373,0.468,0.591
			C58.711,21.236,58.765,21.489,58.765,21.776z"/>
		<path fill="#FFFFFF" d="M56.209,18.626V14c-0.061,0.076-0.127,0.157-0.201,0.243s-0.154,0.172-0.24,0.258
			c-0.086,0.086-0.175,0.169-0.267,0.249c-0.093,0.08-0.185,0.154-0.276,0.222l-0.21-0.36c0.132-0.1,0.263-0.211,0.393-0.333
			s0.255-0.25,0.375-0.384c0.12-0.134,0.234-0.271,0.342-0.411s0.203-0.276,0.285-0.408c0.083,0.132,0.179,0.268,0.286,0.408
			s0.222,0.277,0.341,0.411c0.12,0.134,0.245,0.262,0.375,0.384c0.131,0.122,0.262,0.233,0.394,0.333l-0.21,0.36
			c-0.092-0.068-0.185-0.142-0.276-0.222c-0.092-0.08-0.181-0.163-0.267-0.249c-0.086-0.086-0.166-0.172-0.24-0.258
			S56.671,14.076,56.61,14v4.626H56.209z"/>
	</g>
	<g id="더케이호텔_1_">
		<path fill="#414042" d="M146.767,64.628c-0.277-0.016-0.267-0.273-0.267-0.289c0.021-0.135,0.061-0.252,0.126-0.397
			c0.192-0.411,0.641-0.659,1.165-0.659s0.952,0.244,1.147,0.659c0.11,0.23,0.147,0.385,0.156,0.686H146.767z M150.345,64.624
			v-0.009c-0.131-1.424-1.108-2.301-2.554-2.301c-1.584,0-2.572,1.063-2.572,2.782c0,2.312,1.48,2.8,2.725,2.8
			c1.103,0,1.682-0.325,2.263-0.851l0.031-0.022l-0.822-0.695l-0.02,0.02c-0.394,0.355-0.737,0.544-1.43,0.544
			c-0.921,0-1.474-0.535-1.484-1.439h3.041C150.283,65.408,150.345,64.812,150.345,64.624"/>
		<path fill="#414042" d="M152.13,60.26c-0.77,0-0.88,0.551-0.889,0.792v6.842h1.335V60.26H152.13z"/>
		<path fill="#414042" d="M138.03,63.321c-0.983,0-1.491,0.835-1.491,1.778c0,0.95,0.553,1.793,1.51,1.793
			c0.99,0,1.495-0.834,1.495-1.776C139.544,64.164,138.987,63.321,138.03,63.321 M138.03,67.895c-1.634,0-2.66-1.245-2.66-2.778
			c0-1.54,1.038-2.804,2.679-2.804c1.64,0,2.663,1.243,2.663,2.787C140.712,66.631,139.68,67.895,138.03,67.895"/>
		<path fill="#414042" d="M143.291,63.272h1.211v-1.136h-1.525v-1.585h-0.444c-0.775,0.005-0.886,0.559-0.896,0.79V66.3
			c0,1.261,0.688,1.69,1.655,1.69c0.491,0,0.862-0.109,1.188-0.295v-1.079c-0.26,0.131-0.521,0.197-0.816,0.197
			c-0.448,0-0.708-0.208-0.686-0.721v-2.508C142.977,63.409,143.119,63.272,143.291,63.272"/>
		<path fill="#414042" d="M133.987,60.26c-0.771,0-0.883,0.551-0.899,0.792v2.379h-3.458V60.26h-0.446
			c-0.767,0-0.878,0.551-0.886,0.792v6.842h1.332v-2.906c0-0.17,0.142-0.318,0.323-0.318h3.139v3.224h1.34V60.26H133.987z"/>
		<path fill="#414042" d="M121.263,69.197c-0.09-0.056-0.212-0.037-0.277,0.048c-0.97,1.215-2.411,1.913-3.96,1.913
			c-1.547,0-2.989-0.698-3.955-1.913c-0.072-0.085-0.191-0.104-0.282-0.048c-0.091,0.059-0.125,0.178-0.073,0.277
			c0.838,1.619,2.489,2.619,4.311,2.619c1.819,0,3.471-1,4.311-2.619C121.387,69.375,121.352,69.256,121.263,69.197"/>
		<path fill="#414042" d="M112.42,63.234c-0.506,0.011-0.556,0.561-0.561,0.582v1.552h2.139v-2.134H112.42z"/>
		<path fill="#414042" d="M121.798,63.675l2.372-2.366l-1.622-1.622l-2.715,2.716l-0.958,0.959l0,0
			c-0.565,0.41-0.649-0.179-0.659-0.337v-3.361h-1.202c-0.922,0.018-1.075,0.949-1.092,1.096v7.62h2.294v-4.35l4.332,4.331
			l1.622-1.621l-2.383-2.38C121.5,64.047,121.767,63.714,121.798,63.675"/>
		<path fill="#414042" d="M102.253,62.375c-0.44,0-0.855,0.115-1.204,0.331c-0.088,0.019-0.163,0.014-0.218-0.022
			c-0.062-0.041-0.083-0.115-0.09-0.151V60.26h-0.374c-0.307,0-0.541,0.087-0.694,0.264c-0.235,0.262-0.192,0.623-0.192,0.639
			l-0.006,6.732h1.267v-3.339c0-0.719,0.445-1.146,1.182-1.146c0.731,0,1.171,0.427,1.171,1.146v3.339h1.269v-3.51
			C104.362,63.144,103.555,62.375,102.253,62.375 M106.317,64.339c0.019-0.135,0.057-0.252,0.126-0.397
			c0.19-0.411,0.639-0.659,1.159-0.659c0.525,0,0.96,0.244,1.153,0.659c0.107,0.232,0.145,0.385,0.155,0.684h-2.327
			C106.303,64.612,106.314,64.355,106.317,64.339 M109.209,66.346c-0.393,0.355-0.734,0.546-1.431,0.546
			c-0.918,0-1.47-0.537-1.48-1.441h3.035c0.762-0.043,0.822-0.639,0.822-0.828v-0.009c-0.127-1.424-1.107-2.301-2.553-2.301
			c-1.584,0-2.563,1.063-2.563,2.784c0,2.314,1.477,2.797,2.717,2.797c1.104,0,1.686-0.325,2.265-0.848l0.028-0.025l-0.819-0.695
			L109.209,66.346z M92.755,61.045v0.311h2.313v6.539h1.338V61.67c0.024-0.261,0.213-0.308,0.293-0.314h2.021V60.26h-5.072
			C92.874,60.26,92.767,60.811,92.755,61.045"/>
		<path fill="#414042" d="M140.593,71.308c0.566,0.141,0.862,0.34,0.862,0.785c0,0.508-0.396,0.803-0.953,0.803
			c-0.409,0-0.797-0.142-1.113-0.43l0.279-0.332c0.255,0.222,0.514,0.347,0.843,0.347c0.288,0,0.473-0.135,0.473-0.34
			c0-0.198-0.104-0.3-0.6-0.413c-0.571-0.141-0.894-0.307-0.894-0.802c0-0.466,0.382-0.779,0.912-0.779
			c0.389,0,0.701,0.12,0.973,0.336l-0.252,0.353c-0.243-0.177-0.482-0.276-0.727-0.276c-0.274,0-0.433,0.144-0.433,0.327
			C139.964,71.096,140.082,71.187,140.593,71.308"/>
		<polygon fill="#414042" points="143.988,70.602 142.48,70.602 142.48,71.297 143.816,71.297 143.816,71.718 142.48,71.718 
			142.48,72.438 144.009,72.438 144.009,72.858 142.004,72.858 142.004,70.184 143.988,70.184 		"/>
		<path fill="#414042" d="M145.843,70.57c-0.535,0-0.901,0.427-0.901,0.948c0,0.521,0.381,0.953,0.91,0.953
			c0.527,0,0.901-0.422,0.901-0.944C146.753,71.001,146.373,70.57,145.843,70.57 M145.843,72.9c-0.824,0-1.395-0.62-1.395-1.374
			c0-0.758,0.581-1.387,1.403-1.387c0.815,0,1.393,0.62,1.393,1.378C147.244,72.276,146.662,72.9,145.843,72.9"/>
		<path fill="#414042" d="M150.056,71.704c0,0.795-0.451,1.192-1.151,1.192c-0.691,0-1.134-0.397-1.134-1.168v-1.544h0.471v1.522
			c0,0.496,0.255,0.765,0.674,0.765c0.417,0,0.673-0.253,0.673-0.743v-1.544h0.468V71.704z"/>
		<polygon fill="#414042" points="150.699,70.184 151.17,70.184 151.17,72.427 152.576,72.427 152.576,72.858 150.699,72.858 		"/>
	</g>
</g>
</svg>
