<?xml version="1.0" encoding="utf-8"?>
<!-- Generator: Adobe Illustrator 16.0.0, SVG Export Plug-In . SVG Version: 6.00 Build 0)  -->
<!DOCTYPE svg PUBLIC "-//W3C//DTD SVG 1.0//EN" "http://www.w3.org/TR/2001/REC-SVG-20010904/DTD/svg10.dtd">
<svg version="1.0" id="Layer_1" xmlns="http://www.w3.org/2000/svg" xmlns:xlink="http://www.w3.org/1999/xlink" x="0px" y="0px"
	 width="193.681px" height="133.32px" viewBox="0 0 193.681 133.32" enable-background="new 0 0 193.681 133.32"
	 xml:space="preserve">
<g>
	<path fill-rule="evenodd" clip-rule="evenodd" d="M53.013,84.775c-0.046,0.798-0.101,1.595-0.137,2.392
		c-0.053,1.188-0.147,2.377-0.118,3.562c0.022,0.936,0.225,1.865,0.312,2.801c0.163,1.754,0.799,3.327,1.686,4.835
		c0.413,0.701,0.818,1.478,0.933,2.262c0.102,0.697,0.657,1.089,0.777,1.709c0.441,2.262,0.512,4.554,0.377,6.842
		c-0.066,1.118-0.84,1.95-1.577,2.755c-0.632,0.689-1.271,1.381-1.825,2.132c-0.972,1.318-2.35,1.862-3.865,2.185
		c-0.528,0.112-1.058,0.235-1.594,0.289c-1.194,0.122-2.423,0.352-3.579-0.06c-1.541-0.547-1.854-1.365-1.699-3.183
		c0.025-0.293,0.042-0.586,0.066-0.924c0.157,0.116,0.303,0.224,0.521,0.385c0.4-1.202,1.259-2.241,0.812-3.568
		c-0.106-0.314-0.429-0.576-0.697-0.811c-0.772-0.672-1.794-0.48-2.691-0.728c-1.406-0.389-2.73-0.968-3.883-1.854
		c-1.279-0.983-2.554-1.99-3.708-3.112c-1.123-1.093-2.155-2.296-2.574-3.892c-0.105-0.399-0.391-0.749-0.569-1.133
		c-1.012-2.169-0.804-4.424-0.449-6.684c0.113-0.721,0.166-1.474,0.427-2.142c0.523-1.338,1.142-2.642,1.776-3.933
		c0.499-1.016,1.035-2.02,1.638-2.976c0.387-0.613,0.93-1.128,1.393-1.694c0.197-0.241,0.376-0.497,0.553-0.754
		c0.461-0.668,0.95-1.319,1.364-2.016c0.453-0.763,0.833-1.568,1.248-2.354c0.676-1.282,0.998-2.689,1.433-4.057
		c0.415-1.304,0.795-2.618,1.214-3.92c0.445-1.383,0.916-2.757,1.381-4.133c0.489-1.446,0.916-2.919,1.502-4.325
		c0.353-0.845,0.975-1.574,1.445-2.373c0.202-0.344,0.304-0.745,0.494-1.097c0.19-0.352,0.434-0.676,0.656-1.01
		c0.032-0.048,0.116-0.088,0.113-0.127c-0.07-0.807,0.552-1.315,0.835-1.968c0.307-0.708,0.758-1.28,1.303-1.831
		c0.52-0.526,0.823-1.261,1.323-1.812c0.485-0.535,1.1-0.951,1.655-1.423c0.661-0.562,1.307-1.141,1.98-1.687
		c0.453-0.366,0.956-0.67,1.412-1.033c0.545-0.433,1.059-0.905,1.599-1.345c0.125-0.102,0.295-0.153,0.452-0.205
		c0.723-0.238,1.446-0.48,2.175-0.697c0.595-0.178,1.217-0.277,1.798-0.491c1.124-0.413,2.291-0.642,3.452-0.9
		c0.364-0.081,0.74-0.107,1.109-0.166c0.674-0.108,1.336,0.133,1.975,0.132c1.122-0.001,2.053,0.549,3.094,0.738
		c0.475,0.086,0.94,0.243,1.417,0.303c1.704,0.215,2.845,1.278,3.879,2.515c0.132,1.243,1.141,0.482,1.708,0.732
		c0.579,0.255,1.239,0.341,1.795,0.63c0.687,0.358,1.295,0.864,1.953,1.281c1.064,0.674,1.714,1.713,2.432,2.696
		c1.843,2.521,2.948,5.369,3.773,8.354c0.403,1.46,0.989,2.872,1.355,4.339c0.237,0.949,0.258,1.958,0.319,2.944
		c0.063,1.018,0.037,2.04,0.422,3.014c0.084,0.211,0.088,0.468,0.076,0.7c-0.056,1.048,0.31,1.995,0.592,2.979
		c0.256,0.895,0.247,1.861,0.406,2.788c0.086,0.504,0.285,0.988,0.419,1.485c0.239,0.882,0.554,1.755,0.675,2.653
		c0.11,0.816,0.377,1.553,0.716,2.274c0.598,1.271,0.876,2.659,1.473,3.927c0.378,0.805,0.796,1.592,1.211,2.378
		c0.318,0.604,0.617,1.225,0.999,1.788c0.656,0.966,1.387,1.881,2.046,2.846c0.14,0.204,0.08,0.535,0.149,0.798
		c0.178,0.67,0.367,1.337,0.566,2c0.208,0.688-0.388,1.592-1.191,1.53c-0.217-0.016-0.483,0.033-0.658,0.153
		c-0.49,0.337-0.997,0.146-1.462,0.043c-0.55-0.121-1.052-0.449-1.599-0.599c-0.622-0.169-1.271-0.24-1.908-0.353
		c-0.038-0.006-0.087,0.019-0.118,0.004c-0.958-0.465-1.69,0.122-2.481,0.503c-0.551,0.265-1.141,0.45-1.709,0.683
		c-0.167,0.068-0.319,0.173-0.477,0.264c-0.687,0.397-1.431,0.543-2.188,0.327c-0.974-0.277-1.986-0.521-2.863-0.998
		c-0.518-0.282-1.298-0.311-1.532-1.054c-0.021-0.068-0.152-0.121-0.242-0.145c-1.323-0.342-2.438-1.039-3.229-2.138
		c-0.419-0.582-0.709-1.286-0.924-1.978c-0.167-0.536-0.351-0.518-0.752-0.286c-1.239,0.715-2.493,1.403-3.735,2.112
		c-0.68,0.388-1.331,0.468-2.098,0.152c-0.69-0.285-1.471-0.338-2.196-0.549c-1.25-0.362-2.493-0.748-3.725-1.167
		c-0.443-0.151-0.841-0.432-1.265-0.643c-0.726-0.362-1.392-0.795-2.271-0.856c-1.051-0.074-1.867-0.788-2.713-1.381
		c-0.765-0.535-1.558-1.042-2.383-1.479c-0.641-0.339-1.055-0.798-1.293-1.473c-0.098-0.276-0.321-0.509-0.487-0.762
		C53.146,84.738,53.079,84.757,53.013,84.775z M65.341,60.507c-0.29,0.593-0.735,0.886-1.36,0.832
		c-0.518-0.044-0.754,0.213-1.014,0.563c-0.795,1.072-1.633,2.114-2.407,3.201c-0.849,1.191-1.762,2.359-2.432,3.649
		c-0.682,1.312-1.128,2.75-1.631,4.149c-0.367,1.022-0.638,2.078-0.987,3.106c-0.508,1.501-1.069,2.984-1.566,4.488
		c-0.246,0.746-0.397,1.523-0.597,2.285c-0.093,0.355-0.142,0.664,0.241,0.926c0.404,0.276,0.724,0.676,1.132,0.943
		c1.047,0.688,2.116,1.342,3.188,1.99c0.476,0.288,0.96,0.576,1.473,0.784c1.45,0.59,2.91,1.156,4.379,1.696
		c1.452,0.534,2.935,0.986,4.376,1.547c1.157,0.45,2.263,0.542,3.39-0.044c0.327-0.17,0.689-0.272,1.026-0.426
		c1.053-0.477,2.205-0.761,3.109-1.53c0.713-0.607,1.349-1.314,2.106-1.856c1.843-1.318,3.404-2.921,4.731-4.728
		c1.121-1.525,2.483-2.95,2.738-4.966c0.062-0.489,0.171-0.981,0.163-1.47c-0.022-1.41,0.024-2.837-0.175-4.225
		c-0.26-1.808-1.065-3.517-1.02-5.395c0.018-0.756-0.064-1.515-0.102-2.272c-0.169-3.348-1.036-6.534-2.291-9.618
		c-0.781-1.919-2.104-3.468-3.557-4.919c-0.709-0.709-1.48-0.841-2.291-0.254c-0.467,0.338-0.892,0.735-1.346,1.092
		c-1.504,1.181-3.014,2.356-4.521,3.535c-0.368,0.288-0.733,0.579-1.1,0.868c-0.011-0.019-0.023-0.037-0.034-0.056
		c-1.645,2.09-3.291,4.18-4.936,6.27c0.047,0.046,0.094,0.093,0.141,0.139C64.515,60.722,64.859,60.633,65.341,60.507z"/>
	<path fill-rule="evenodd" clip-rule="evenodd" d="M137.932,23.597c0.144-0.28,0.216-0.42,0.281-0.547
		c0.508,0.277,0.957,0.521,1.406,0.766c0.036-0.045,0.072-0.09,0.107-0.134c0,0.149,0,0.298,0,0.329
		c0.383,0.28,0.691,0.521,1.015,0.74c0.703,0.479,1.471,0.882,2.109,1.436c1.233,1.07,2.423,2.196,3.575,3.354
		c0.54,0.543,0.951,1.214,1.422,1.828c0.046,0.061,0.082,0.147,0.144,0.175c0.99,0.442,1.473,1.384,2.142,2.145
		c0.525,0.598,1.095,1.156,1.624,1.75c1.415,1.587,2.747,3.207,3.047,5.439c0.209,1.555,0.195,3.107,0.099,4.657
		c-0.065,1.065-0.293,2.12-0.442,3.18c-0.027,0.188-0.049,0.381-0.038,0.57c0.052,0.896,0.056,1.799,0.189,2.683
		c0.186,1.224-0.035,2.429-0.05,3.642c-0.003,0.171-0.117,0.341-0.241,0.469c0,0.592,0.057,1.191-0.017,1.774
		c-0.068,0.538,0.025,1.189-0.638,1.494c-0.038,0.018-0.065,0.106-0.062,0.159c0.02,0.392,0.13,0.801,0.053,1.171
		c-0.104,0.496-0.33,0.971-0.54,1.439c-0.237,0.529-0.511,1.043-0.774,1.561c-0.345,0.679-0.706,1.35-1.036,2.036
		c-0.127,0.265-0.184,0.562-0.276,0.855c0.475,0.274,0.935,0.666,1.463,0.815c0.675,0.19,0.898,0.769,0.947,1.214
		c0.096,0.878-0.153,1.788-0.101,2.675c0.05,0.833-0.501,1.386-0.78,2.041c-0.381,0.893-1.039,1.669-2.001,2.093
		c-0.603,0.265-1.19,0.565-1.77,0.879c-0.906,0.49-1.098,1.058-0.719,2.058c-0.634,0.393-1.104,0.87-1.055,1.722
		c0.049,0.841-0.473,1.51-0.822,2.229c-0.248,0.51-0.632,1.051-0.621,1.57c0.025,1.277-0.813,1.919-1.596,2.66
		c-0.394,0.374-0.86,0.772-1.034,1.253c-0.305,0.845-0.981,1.292-1.593,1.8c-0.644,0.535-1.367,0.982-2.085,1.419
		c-0.3,0.182-0.698,0.195-1.01,0.364c-0.281,0.153-0.495,0.426-0.755,0.624c-0.264,0.201-0.526,0.424-0.826,0.553
		c-0.995,0.426-2.03,0.764-3.006,1.229c-1.272,0.607-2.703,0.352-3.978,0.819c-0.521,0.191-1.129,0.183-1.571,0.673
		c-0.205,0.227-0.684,0.202-1.034,0.301c-0.599,0.169-1.199,0.329-1.788,0.524c-0.297,0.1-0.562,0.295-0.856,0.402
		c-0.468,0.17-0.94,0.361-1.428,0.441c-1.165,0.192-2.336,0.41-3.511,0.462c-1.896,0.083-3.802,0.127-5.693,0.018
		c-1.179-0.068-2.155-0.825-3.112-1.496c-0.29-0.203-0.563-0.429-0.854-0.63c-0.89-0.617-1.784-1.229-2.676-1.843
		c-0.941-0.648-1.894-1.281-2.817-1.954c-0.479-0.348-0.922-0.749-1.353-1.155c-0.885-0.834-1.773-1.663-2.614-2.539
		c-0.641-0.668-1.226-1.391-1.806-2.113c-0.96-1.197-1.961-2.37-2.819-3.639c-0.587-0.869-0.979-1.875-1.424-2.835
		c-0.314-0.681-0.625-1.371-0.842-2.086c-0.278-0.92-0.46-1.869-0.687-2.805c-0.114-0.474-0.226-0.948-0.354-1.418
		c-0.352-1.291-0.083-2.567,0.061-3.851c0.08-0.717,0.149-1.44,0.136-2.16c-0.026-1.332,0.542-2.495,0.965-3.701
		c0.242-0.69,0.499-1.379,0.803-2.043c0.372-0.81,0.805-1.59,1.203-2.388c0.554-1.111,1.101-2.225,1.691-3.422
		c-1.055-0.3-1.397-1.142-1.57-2.074c-0.19-1.023-0.377-2.052-0.469-3.087c-0.056-0.627,0.127-1.272,0.102-1.905
		c-0.03-0.728-0.25-1.452-0.247-2.177c0.005-1.024,0.138-2.048,0.222-3.071c0.029-0.354,0.039-0.715,0.122-1.058
		c0.262-1.084,0.558-2.16,0.832-3.241c0.047-0.185,0.126-0.41,0.063-0.565c-0.285-0.696-0.041-1.324,0.164-1.972
		c0.106-0.335,0.142-0.692,0.214-1.066c0.148,0.252,0.274,0.574,0.34,0.562c0.356-0.064,0.292-0.337,0.263-0.63
		c-0.054-0.542-0.064-1.094-0.03-1.638c0.011-0.175,0.18-0.421,0.339-0.493c0.694-0.311,0.8-0.961,0.986-1.57
		c0.021-0.07-0.022-0.171,0.014-0.225c1.084-1.586,2.312-3.048,3.89-4.165c0.921-0.652,1.863-1.292,2.863-1.805
		c1.104-0.565,2.324-0.827,3.573-0.808c0.971,0.015,1.801-0.323,2.617-0.796c1.092-0.632,2.204-1.231,3.315-1.828
		c0.47-0.252,0.947-0.506,1.448-0.684c0.676-0.241,1.398-0.355,2.063-0.62c1.692-0.672,3.489-0.868,5.26-1.063
		c1.199-0.132,2.444,0.213,3.671,0.246c0.882,0.023,1.682,0.309,2.514,0.508c0.32,0.077,0.672,0.013,1.004,0.054
		c1.866,0.232,3.596,0.906,5.288,1.686c0.414,0.191,0.807,0.433,1.19,0.681c0.123,0.08,0.195,0.248,0.271,0.387
		C137.709,23.069,137.773,23.242,137.932,23.597z M118.038,42.393c-0.049,0.052-0.098,0.104-0.146,0.157
		c0.395,0.401,0.766,0.83,1.187,1.2c1.112,0.977,2.222,1.961,3.387,2.873c0.368,0.288,0.478,0.507,0.398,0.949
		c-0.092,0.516-0.271,0.649-0.717,0.402c-1.218-0.675-2.462-1.305-3.65-2.028c-0.794-0.482-1.517-1.084-2.26-1.649
		c-0.404-0.308-0.752-0.697-1.179-0.964c-1.095-0.684-2.277-1.24-3.312-2.001c-0.812-0.597-1.51-1.378-2.16-2.16
		c-0.575-0.69-1.017-1.493-1.592-2.36c-0.495,0.831-0.951,1.509-1.315,2.234c-0.386,0.768-0.695,1.575-1.018,2.374
		c-0.223,0.553-0.655,1.02-0.564,1.704c0.091,0.687-0.104,1.314-0.524,1.91c-0.249,0.353-0.27,0.861-0.42,1.29
		c-0.303,0.862-0.604,1.726-0.944,2.573c-0.217,0.54-0.559,1.034-0.745,1.583c-0.237,0.7-0.371,1.434-0.557,2.152
		c-0.351,1.355-0.99,2.553-1.919,3.605c-0.317,0.359-0.637,0.758-0.807,1.197c-0.275,0.71-0.706,1.331-0.936,2.085
		c-0.317,1.042-0.991,1.974-1.514,2.952c-0.175,0.329-0.367,0.649-0.53,0.984c-0.24,0.492-0.532,0.974-0.671,1.495
		c-0.167,0.623-0.186,1.285-0.289,1.926c-0.122,0.762-0.334,1.516-0.382,2.281c-0.053,0.834,0.053,1.677,0.059,2.516
		c0.002,0.383-0.158,0.781-0.092,1.146c0.21,1.163,0.466,2.32,0.753,3.468c0.201,0.801,0.43,1.603,0.741,2.365
		c0.276,0.679,0.668,1.312,1.034,1.949c0.314,0.548,0.638,1.095,1.007,1.606c0.371,0.515,0.807,0.981,1.207,1.474
		c0.456,0.561,0.916,1.118,1.352,1.694c0.247,0.326,0.448,0.688,0.68,1.05c0.185,0.136,0.418,0.285,0.625,0.466
		c0.613,0.534,1.199,1.1,1.825,1.617c0.699,0.577,1.439,1.104,2.146,1.673c0.298,0.239,0.521,0.583,0.838,0.785
		c1.051,0.669,2.138,1.281,3.192,1.945c0.65,0.409,1.254,0.893,1.903,1.306c0.365,0.233,0.846,0.314,1.159,0.594
		c1.137,1.014,2.407,1.273,3.856,0.883c0.733-0.197,1.481-0.479,2.223-0.476c1.166,0.004,2.247-0.255,3.312-0.654
		c0.47-0.177,0.908-0.434,1.436-0.69c0.112,0,0.369,0.06,0.582-0.012c0.546-0.183,1.057-0.495,1.611-0.629
		c1.676-0.404,3.374-0.726,4.821-1.753c0.047-0.033,0.13-0.08,0.16-0.062c0.534,0.329,0.87-0.175,1.294-0.301
		c0.324-0.098,0.699-0.133,0.956-0.323c0.813-0.604,1.572-1.282,2.371-1.906c0.453-0.354,0.981-0.618,1.41-0.997
		c1.145-1.009,2.116-2.174,2.898-3.489c0.504-0.848,1.084-1.66,1.49-2.552c0.35-0.769,0.45-1.646,0.758-2.438
		c0.264-0.68,0.631-1.327,1.017-1.948c0.329-0.531,0.751-1.005,1.035-1.377c0.292-0.223,0.586-0.331,0.65-0.518
		c0.211-0.605,0.479-0.786,1.091-0.855c0.371-0.043,0.771-0.241,1.062-0.482c0.877-0.726,1.691-1.526,2.562-2.261
		c0.728-0.613,1.413-1.247,1.491-2.259c0.052-0.673,0.01-1.353,0.01-1.995c-0.371-0.114-0.613-0.188-0.896-0.274
		c-0.124,0.384-0.35,0.456-0.752,0.405c-0.416-0.052-0.871,0.064-1.286,0.188c-0.628,0.187-1.236,0.443-1.853,0.671
		c0.026,0.03,0.054,0.062,0.08,0.093c-0.464,0.358-0.929,0.718-1.434,1.107c-0.205-0.542-0.555-0.699-1.094-0.437
		c0.298-0.532,0.258-0.585-0.26-0.758c-0.194-0.064-0.495-0.244-0.498-0.377c-0.017-0.64-0.459-1.155-0.342-1.868
		c0.166-1.014,0.068-2.07,0.104-3.107c0.016-0.467,0.08-0.932,0.125-1.431c-0.599,0.209-0.806-0.197-1.03-0.504
		c-1.107-1.516-1.761-3.26-2.431-4.989c-0.464-1.197-0.854-2.423-1.206-3.431c-0.572-0.27-0.944-0.496-1.348-0.623
		c-0.411-0.129-0.852-0.172-1.282-0.23c-0.162-0.022-0.374,0.085-0.494,0.016c-0.758-0.443-1.494-0.903-2.028-1.647
		c-0.841-1.173-1.731-2.313-2.626-3.447c-0.256-0.324-0.6-0.577-0.917-0.875c-0.51,0.77-0.264,1.189,0.288,1.577
		c0.165,0.116,0.247,0.422,0.261,0.647c0.006,0.097-0.256,0.295-0.4,0.3c-0.373,0.013-0.788,0.031-1.115-0.114
		c-0.575-0.255-1.082-0.661-1.646-0.948c-0.808-0.412-1.705-0.646-2.388-1.298c-0.195-0.186-0.45-0.317-0.694-0.442
		c-1.016-0.522-2.035-1.037-3.062-1.538c-0.104-0.051-0.266,0.015-0.29,0.017C119.91,43.718,118.975,43.055,118.038,42.393z
		 M147.693,67.006c0.8-0.148,1.28-0.488,1.235-0.93c-0.051-0.495-0.347-0.799-0.823-0.893
		C147.65,65.751,147.405,66.323,147.693,67.006z M127.127,32.729c0.44,0.5,0.799,0.906,1.156,1.312
		c0.039-0.032,0.078-0.063,0.117-0.095c-0.344-0.51-0.677-1.028-1.042-1.522c-0.062-0.084-0.285-0.119-0.395-0.077
		c-0.071,0.028-0.072,0.237-0.104,0.365C126.996,32.72,127.134,32.729,127.127,32.729z M119.557,22.441
		c0.663-0.197,1.249-0.371,1.947-0.578C120.781,21.581,119.669,21.914,119.557,22.441z M99.868,51.974
		c0.054-0.284,0.035-0.537,0.146-0.704c0.276-0.418-0.004-0.508-0.347-0.711c-0.077,0.513-0.142,0.942-0.21,1.394
		C99.66,51.963,99.775,51.969,99.868,51.974z"/>
	<path fill-rule="evenodd" clip-rule="evenodd" d="M102.693,103.661c0.39-0.501,0.676-0.935,1.027-1.305
		c0.627-0.661,1.908-0.69,2.453,0.028c0.242,0.319,0.294,0.922,0.194,1.339c-0.507,2.114-1.442,4.065-2.51,5.946
		c-0.451,0.796-1.234,0.883-1.811,0.162c-0.601-0.75-1.097-1.599-1.54-2.455c-0.363-0.7-0.602-1.469-0.858-2.219
		c-0.115-0.335-0.177-0.697-0.197-1.052c-0.034-0.592,0.014-1.172,0.667-1.462c0.692-0.309,1.331-0.135,1.902,0.278
		C102.29,103.116,102.479,103.42,102.693,103.661z M100.789,104.051c0.564,1.595,0.962,3.188,2.069,4.606
		c0.827-1.806,1.764-3.458,2.143-5.5c-0.202,0.148-0.281,0.197-0.35,0.258c-0.647,0.575-0.65,1.413-0.862,2.162
		c-0.14,0.489-0.35,0.865-0.941,0.747c-0.581-0.116-1.363-0.977-1.292-1.392c0.003-0.02,0.012-0.038,0.016-0.058
		C101.655,104.447,101.374,104.111,100.789,104.051z"/>
	<path fill-rule="evenodd" clip-rule="evenodd" d="M94.786,107.637c0-0.45,0-0.903,0-1.427c-0.319,0.045-0.605,0.082-0.891,0.128
		c-0.488,0.08-0.879-0.108-0.963-0.577c-0.079-0.438,0.224-0.713,0.675-0.821c1.053-0.254,2.1-0.534,3.151-0.796
		c0.404-0.101,0.788,0.034,0.854,0.429c0.042,0.248-0.218,0.548-0.345,0.823c-0.007,0.016-0.031,0.028-0.05,0.032
		c-0.993,0.187-0.926,0.992-0.943,1.696c-0.04,1.628-0.025,3.258-0.047,4.887c-0.006,0.439-0.271,0.749-0.7,0.742
		c-0.446-0.006-0.717-0.305-0.718-0.783c-0.001-0.991,0-1.981,0-2.927c-0.695-0.035-1.432-0.004-2.144-0.122
		c-1.229-0.204-2.027-1.243-2.039-2.492c-0.01-1.133-0.059-2.282,0.496-3.313c0.19-0.354,0.535-0.695,0.894-0.857
		c0.197-0.089,0.651,0.138,0.833,0.354c0.123,0.146,0.074,0.671-0.071,0.77c-0.717,0.484-0.635,1.241-0.719,1.918
		c-0.065,0.521-0.067,1.093,0.082,1.589c0.182,0.606,0.787,0.724,1.363,0.745C93.918,107.649,94.333,107.637,94.786,107.637z"/>
	<path fill-rule="evenodd" clip-rule="evenodd" d="M148.545,104.199c-0.715,0.593-1.245,1.159-1.086,2.105
		c0.064,0.389,0.022,0.798,0.008,1.197c-0.019,0.474-0.375,0.851-0.785,0.8c-0.434-0.054-0.644-0.308-0.641-0.778
		c0.01-1.579-0.002-3.157-0.021-4.735c-0.012-1.012-0.07-2.023-0.068-3.035c0.001-0.26,0.094-0.562,0.247-0.77
		c0.306-0.416,0.988-0.267,1.144,0.243c0.09,0.299,0.118,0.625,0.123,0.939c0.015,0.984,0.006,1.97,0.006,3.088
		c0.675-0.643,1.273-1.203,1.862-1.774c0.286-0.278,0.531-0.602,0.837-0.854c0.339-0.28,0.723-0.341,1.056,0.037
		c0.336,0.383,0.209,0.728-0.118,1.039c-0.52,0.494-1.041,0.984-1.559,1.474c1.002,1.173,1.922,2.266,2.86,3.342
		c0.378,0.433,0.439,0.835,0.113,1.146c-0.314,0.299-0.849,0.204-1.2-0.208C150.409,106.382,149.494,105.312,148.545,104.199z"/>
	<path fill-rule="evenodd" clip-rule="evenodd" d="M132.595,105.331c0.052-0.612,0.061-1.232,0.174-1.834
		c0.059-0.312,0.232-0.733,0.476-0.85c0.434-0.207,0.793,0.085,0.986,0.521c0.298,0.674,0.591,1.349,0.89,2.021
		c0.065,0.148,0.146,0.29,0.342,0.398c0-0.95-0.01-1.9,0.006-2.851c0.005-0.251,0.016-0.558,0.155-0.737
		c0.142-0.183,0.452-0.337,0.676-0.322c0.187,0.013,0.474,0.267,0.509,0.453c0.084,0.438,0.063,0.9,0.05,1.352
		c-0.03,1.006-0.053,2.013-0.143,3.014c-0.03,0.34-0.219,0.683-0.394,0.991c-0.359,0.636-1.163,0.671-1.567,0.07
		c-0.288-0.428-0.528-0.887-0.796-1.342c-0.182,0.445-0.367,0.911-0.561,1.374c-0.2,0.48-0.59,0.596-1.071,0.573
		c-0.498-0.023-0.701-0.366-0.815-0.753c-0.311-1.044-0.574-2.102-0.878-3.148c-0.093-0.318-0.24-0.624-0.393-0.92
		c-0.201-0.389-0.284-0.76,0.105-1.069c0.44-0.351,0.833-0.134,1.069,0.24c0.261,0.413,0.422,0.895,0.59,1.359
		c0.173,0.479,0.301,0.974,0.448,1.461C132.5,105.333,132.548,105.332,132.595,105.331z"/>
	<path fill-rule="evenodd" clip-rule="evenodd" d="M126.715,106.797c0.036-0.563,0.069-1.093,0.107-1.694
		c-0.199,0.024-0.39,0.106-0.529,0.054c-0.27-0.103-0.676-0.242-0.721-0.437c-0.057-0.25,0.119-0.635,0.32-0.837
		c0.162-0.163,0.508-0.152,0.776-0.199c0.679-0.118,1.367-0.192,2.037-0.35c0.409-0.096,0.755-0.149,0.974,0.283
		c0.234,0.465-0.045,0.751-0.387,1.002c-0.047,0.034-0.114,0.042-0.158,0.079c-0.259,0.223-0.827-0.042-0.856,0.541
		c-0.019,0.369-0.03,0.739-0.054,1.109c-0.059,0.926-0.078,1.857-0.212,2.771c-0.034,0.235-0.417,0.562-0.667,0.589
		c-0.368,0.039-0.657-0.265-0.681-0.686c-0.021-0.371-0.004-0.744-0.004-1.139c-1.861,0.63-2.965-0.977-3.095-2.411
		c-0.133-1.472,0.206-2.809,1.271-3.894c0.176-0.178,0.39-0.33,0.61-0.449c0.4-0.216,0.688-0.018,0.898,0.32
		c0.228,0.364,0.056,0.632-0.238,0.862c-0.952,0.746-1.475,2.558-0.979,3.621c0.129,0.274,0.482,0.471,0.771,0.637
		C126.115,106.694,126.391,106.712,126.715,106.797z"/>
	<path fill-rule="evenodd" clip-rule="evenodd" d="M86.282,106.85c-0.084,0.986-0.145,1.893-0.251,2.793
		c-0.028,0.238-0.141,0.525-0.315,0.672c-0.176,0.147-0.484,0.226-0.718,0.196c-0.368-0.046-0.489-0.347-0.473-0.712
		c0.074-1.666,0.139-3.333,0.211-5c0.007-0.156-0.005-0.343,0.074-0.46c0.157-0.233,0.345-0.556,0.568-0.602
		c0.22-0.045,0.586,0.143,0.739,0.343c0.564,0.739,1.068,1.526,1.593,2.296c0.12,0.176,0.235,0.354,0.49,0.5
		c-0.037-0.514-0.084-1.027-0.108-1.542c-0.02-0.418,0-0.838-0.02-1.257c-0.019-0.401,0.165-0.729,0.537-0.714
		c0.267,0.011,0.68,0.255,0.75,0.48c0.16,0.52,0.188,1.09,0.202,1.642c0.027,1.077,0.012,2.155,0.007,3.233
		c-0.002,0.439-0.098,0.85-0.567,1.017c-0.494,0.177-0.789-0.145-1.04-0.495C87.411,108.472,86.874,107.693,86.282,106.85z"/>
	<path fill-rule="evenodd" clip-rule="evenodd" d="M111.704,103.684c-0.73,0-1.427,0.011-2.121-0.004
		c-0.44-0.009-0.708-0.245-0.732-0.697c-0.023-0.432,0.188-0.67,0.628-0.699c0.888-0.059,1.776-0.094,2.659-0.19
		c0.784-0.086,1.568-0.21,2.339-0.377c0.479-0.104,0.792,0.099,0.854,0.485c0.039,0.24-0.174,0.679-0.386,0.771
		c-0.534,0.233-1.133,0.321-1.786,0.487c0,0.698,0.026,1.453-0.007,2.206c-0.047,1.062-0.287,2.077-0.921,2.961
		c-0.687,0.957-1.646,1.407-2.8,1.451c-0.619,0.024-0.985-0.271-0.978-0.719c0.007-0.431,0.555-0.888,1.05-0.875
		c1.071,0.026,1.729-0.392,1.954-1.45c0.188-0.884,0.2-1.806,0.277-2.712C111.752,104.11,111.715,103.895,111.704,103.684z"/>
	<path fill-rule="evenodd" clip-rule="evenodd" d="M63.51,106.59c0-0.916-0.006-1.654,0.003-2.393
		c0.003-0.195-0.016-0.456,0.095-0.568c0.199-0.203,0.51-0.461,0.734-0.428c0.219,0.033,0.549,0.4,0.551,0.623
		c0.012,1.412-0.032,2.827-0.109,4.239c-0.022,0.404-0.159,0.851-0.669,0.953c-0.513,0.104-0.821-0.226-1.096-0.582
		c-0.55-0.714-1.093-1.435-1.658-2.177c-0.228,1.09-0.398,2.053-0.638,2.998c-0.144,0.567-0.548,0.799-0.951,0.618
		c-0.491-0.222-0.491-0.587-0.387-1.091c0.194-0.945,0.262-1.917,0.378-2.878c0.036-0.294,0.015-0.602,0.093-0.884
		c0.199-0.722,0.811-0.974,1.414-0.52c0.665,0.501,1.253,1.103,1.871,1.665C63.237,106.255,63.314,106.364,63.51,106.59z"/>
	<path fill-rule="evenodd" clip-rule="evenodd" d="M73.512,106.152c0.152-1.141,0.285-2.1,0.406-3.059
		c0.062-0.485,0.326-0.808,0.808-0.776c0.484,0.03,0.657,0.416,0.603,0.866c-0.142,1.176-0.308,2.348-0.455,3.522
		c-0.143,1.141-0.272,2.282-0.412,3.423c-0.026,0.215-0.042,0.438-0.11,0.642c-0.127,0.376-0.4,0.613-0.809,0.52
		c-0.424-0.097-0.628-0.416-0.572-0.853c0.094-0.741,0.218-1.479,0.31-2.222c0.015-0.116-0.044-0.269-0.119-0.364
		c-0.459-0.584-0.938-1.152-1.398-1.734c-0.246-0.311-0.457-0.648-0.704-0.958c-0.295-0.368-0.416-0.766-0.055-1.118
		c0.362-0.353,0.775-0.286,1.082,0.113c0.375,0.488,0.717,1,1.074,1.502C73.246,105.777,73.332,105.898,73.512,106.152z"/>
	<path fill-rule="evenodd" clip-rule="evenodd" d="M71.027,108.93c-0.233,0.205-0.443,0.522-0.72,0.601
		c-0.417,0.116-0.759-0.153-0.778-0.599c-0.027-0.648-0.376-0.577-0.84-0.521c-0.701,0.084-1.122,0.357-1.158,1.122
		c-0.016,0.33-0.118,0.674-0.26,0.974c-0.156,0.328-0.418,0.62-0.848,0.465c-0.426-0.153-0.624-0.445-0.475-0.929
		c0.385-1.248,0.766-2.498,1.118-3.755c0.127-0.453,0.125-0.945,0.268-1.392c0.099-0.309,0.295-0.73,0.541-0.808
		c0.253-0.08,0.76,0.104,0.909,0.333c0.619,0.955,1.167,1.959,1.694,2.97C70.702,107.821,70.812,108.313,71.027,108.93z"/>
	<path fill-rule="evenodd" clip-rule="evenodd" d="M120.967,104.488c0-0.614-0.01-1.09,0.003-1.564
		c0.015-0.543,0.348-0.978,0.737-0.919c0.512,0.076,0.707,0.404,0.69,0.937c-0.033,1.076,0.025,2.157-0.034,3.231
		c-0.018,0.318-0.235,0.76-0.491,0.89c-0.212,0.107-0.684-0.08-0.917-0.28c-0.414-0.356-0.735-0.822-1.167-1.325
		c0,0.536,0.001,0.998,0,1.46c-0.002,0.445-0.296,0.697-0.67,0.694c-0.391-0.003-0.697-0.229-0.705-0.72
		c-0.021-1.233-0.062-2.467-0.107-3.7c-0.016-0.399,0.078-0.785,0.5-0.811c0.271-0.016,0.628,0.177,0.823,0.389
		C120.082,103.264,120.461,103.826,120.967,104.488z"/>
	<path fill-rule="evenodd" clip-rule="evenodd" d="M81.804,106.85c0.404-0.827,0.468-1.658,0.302-2.509
		c-0.088-0.455,0.079-0.812,0.51-0.956c0.445-0.147,0.808,0.126,0.848,0.527c0.134,1.336,0.367,2.707-0.468,3.928
		c-0.515,0.753-1.784,0.775-2.211-0.021c-0.436-0.813-0.747-1.704-1.015-2.59c-0.052-0.171,0.31-0.622,0.547-0.682
		c0.228-0.058,0.66,0.154,0.791,0.374c0.248,0.415,0.343,0.921,0.503,1.389C81.672,106.491,81.739,106.67,81.804,106.85z"/>
	<path fill-rule="evenodd" clip-rule="evenodd" d="M140.935,104.076c-0.06,1.097-0.342,1.848-1.272,2.166
		c-1.214,0.415-2.267-0.422-2.064-1.678c0.086-0.529,0.252-1.086,0.533-1.534c0.362-0.58,1.093-0.625,1.663-0.238
		c0.111,0.075,0.235,0.134,0.359,0.188C140.812,103.263,140.979,103.543,140.935,104.076z"/>
	<path fill-rule="evenodd" clip-rule="evenodd" d="M145.007,103.452c-0.203,0.506-0.353,1.043-0.622,1.511
		c-0.307,0.533-1.043,0.697-1.709,0.484c-0.61-0.196-0.938-0.614-0.903-1.304c0.029-0.568,0.103-1.146,0.251-1.692
		c0.182-0.669,1.512-0.973,2.114-0.502c0.463,0.362,0.869,0.779,0.729,1.464C144.914,103.426,144.96,103.438,145.007,103.452z"/>
	<path fill-rule="evenodd" clip-rule="evenodd" d="M114.637,106.408c0.02-1.41,0.337-1.922,1.253-1.87
		c1.105,0.062,1.697,0.468,1.675,1.416c-0.029,1.215-0.672,1.931-1.73,1.911C114.951,107.848,114.623,107.449,114.637,106.408z"/>
	<path fill-rule="evenodd" clip-rule="evenodd" d="M78.891,106.213c-0.054,0.289-0.077,0.588-0.167,0.864
		c-0.213,0.653-0.7,0.969-1.295,0.881c-0.708-0.104-1.204-0.589-1.238-1.244c-0.022-0.437-0.067-0.89,0.019-1.31
		c0.054-0.263,0.284-0.599,0.52-0.694C77.965,104.208,78.848,104.854,78.891,106.213z"/>
	<path fill-rule="evenodd" clip-rule="evenodd" fill="none" d="M65.341,60.507c-0.482,0.125-0.826,0.215-1.17,0.304
		c-0.047-0.046-0.094-0.093-0.141-0.139c1.645-2.09,3.291-4.18,4.936-6.27c0.011,0.019,0.023,0.037,0.034,0.056
		c0.367-0.289,0.732-0.58,1.1-0.868c1.507-1.179,3.016-2.354,4.521-3.535c0.455-0.357,0.879-0.753,1.346-1.092
		c0.81-0.586,1.582-0.455,2.291,0.254c1.452,1.452,2.776,3,3.557,4.919c1.255,3.084,2.122,6.271,2.291,9.618
		c0.038,0.757,0.12,1.516,0.102,2.272c-0.045,1.878,0.76,3.587,1.02,5.395c0.199,1.388,0.152,2.814,0.175,4.225
		c0.008,0.488-0.101,0.98-0.163,1.47c-0.255,2.016-1.617,3.44-2.738,4.966c-1.328,1.807-2.888,3.409-4.731,4.728
		c-0.757,0.542-1.393,1.249-2.106,1.856c-0.904,0.77-2.056,1.054-3.109,1.53c-0.337,0.153-0.699,0.256-1.026,0.426
		c-1.127,0.586-2.233,0.494-3.39,0.044c-1.441-0.561-2.924-1.013-4.376-1.547c-1.469-0.54-2.929-1.106-4.379-1.696
		c-0.513-0.208-0.997-0.496-1.473-0.784c-1.072-0.648-2.142-1.302-3.188-1.99c-0.408-0.268-0.729-0.667-1.132-0.943
		c-0.383-0.262-0.334-0.57-0.241-0.926c0.199-0.762,0.351-1.539,0.597-2.285c0.497-1.504,1.058-2.987,1.566-4.488
		c0.349-1.028,0.621-2.084,0.987-3.106c0.502-1.399,0.949-2.838,1.631-4.149c0.67-1.29,1.583-2.458,2.432-3.649
		c0.774-1.087,1.612-2.128,2.407-3.201c0.26-0.35,0.496-0.607,1.014-0.563C64.605,61.394,65.051,61.1,65.341,60.507z M81.827,76.575
		c-0.203-0.03-0.563-0.131-0.923-0.132c-0.732-0.002-1.45-0.024-2.17,0.297c-0.618,0.276-1.338,0.321-2.012,0.474
		c-0.944,0.214-1.878,0.556-2.832,0.624c-2.176,0.157-4.361,0.2-6.544,0.256c-1.646,0.041-3.295,0.028-4.942,0.042
		c-0.437,0.004-0.873,0.033-1.308,0.017c-0.169-0.007-0.337-0.103-0.501-0.167c-0.428-0.168-0.854-0.341-1.281-0.513
		c-0.038,0.064-0.076,0.13-0.114,0.194c0.379,0.843,0.738,1.696,1.141,2.527c0.475,0.979,1.076,1.864,1.912,2.594
		c1.113,0.969,2.41,1.557,3.809,1.938c0.38,0.104,0.913-0.111,1.19,0.084c0.959,0.677,1.942,0.391,2.941,0.27
		c1.03-0.125,2.062,0.152,3.112-0.151c1.16-0.334,2.406-0.386,3.438-1.108c0.444-0.312,0.838-0.709,1.31-0.965
		c1.096-0.595,1.867-1.478,2.478-2.535c0.144-0.248,0.374-0.448,0.506-0.701c0.283-0.539,0.592-1.078,0.768-1.655
		C81.921,77.581,81.827,77.134,81.827,76.575z M75.824,72.615c-0.262,0.053-0.49,0.097-0.717,0.144
		c-0.369,0.076-0.743,0.136-1.103,0.244c-0.093,0.028-0.173,0.203-0.194,0.322c-0.008,0.046,0.173,0.189,0.251,0.178
		c0.786-0.121,1.573-0.245,2.346-0.427c0.111-0.026,0.257-0.402,0.204-0.551c-0.524-1.461-1.142-2.89-1.621-4.364
		c-0.406-1.25-0.653-2.551-1.002-3.821c-0.051-0.186-0.281-0.323-0.428-0.482c-0.044,0.188-0.16,0.391-0.122,0.561
		c0.263,1.188,0.508,2.384,0.854,3.55C74.746,69.496,75.287,70.999,75.824,72.615z M81.486,65.294
		c0.005-0.698-0.439-1.197-1.081-1.214c-0.688-0.019-0.948,0.261-0.97,0.97c-0.023,0.719,0.587,1.375,1.23,1.418
		C81.147,66.501,81.48,65.996,81.486,65.294z M64.201,65.928c0.017-0.69-0.309-1.099-0.899-1.127
		c-0.647-0.031-1.119,0.409-1.141,1.065c-0.027,0.803,0.314,1.206,1.027,1.214C63.861,67.087,64.181,66.724,64.201,65.928z
		 M79.312,60.578c0.996,0.591,2.074,0.75,3.127,1.135C82.306,61.009,79.966,60.159,79.312,60.578z M71.606,73.956
		c0.455-0.341,0.672-0.504,0.89-0.667c-0.126-0.089-0.281-0.275-0.373-0.248c-0.254,0.076-0.5,0.219-0.705,0.389
		C71.375,73.465,71.521,73.729,71.606,73.956z"/>
	<path fill-rule="evenodd" clip-rule="evenodd" fill="none" d="M118.038,42.393c0.937,0.663,1.872,1.325,2.834,2.006
		c0.024-0.002,0.186-0.068,0.29-0.017c1.027,0.5,2.047,1.016,3.062,1.538c0.244,0.125,0.499,0.256,0.694,0.442
		c0.683,0.651,1.58,0.886,2.388,1.298c0.563,0.287,1.07,0.693,1.646,0.948c0.327,0.145,0.742,0.126,1.115,0.114
		c0.145-0.005,0.406-0.203,0.4-0.3c-0.014-0.225-0.096-0.531-0.261-0.647c-0.552-0.388-0.798-0.807-0.288-1.577
		c0.317,0.298,0.661,0.552,0.917,0.875c0.895,1.134,1.785,2.273,2.626,3.447c0.534,0.745,1.271,1.205,2.028,1.647
		c0.12,0.07,0.332-0.038,0.494-0.016c0.431,0.059,0.871,0.101,1.282,0.23c0.403,0.126,0.775,0.353,1.348,0.623
		c0.352,1.007,0.742,2.233,1.206,3.431c0.67,1.729,1.323,3.473,2.431,4.989c0.225,0.308,0.432,0.713,1.03,0.504
		c-0.045,0.5-0.109,0.964-0.125,1.431c-0.035,1.037,0.062,2.093-0.104,3.107c-0.117,0.712,0.325,1.228,0.342,1.868
		c0.003,0.133,0.304,0.312,0.498,0.377c0.518,0.173,0.558,0.226,0.26,0.758c0.539-0.263,0.889-0.105,1.094,0.437
		c0.505-0.39,0.97-0.749,1.434-1.107c-0.026-0.031-0.054-0.062-0.08-0.093c0.616-0.228,1.225-0.484,1.853-0.671
		c0.415-0.124,0.87-0.24,1.286-0.188c0.402,0.051,0.628-0.021,0.752-0.405c0.282,0.087,0.524,0.16,0.896,0.274
		c0,0.643,0.042,1.322-0.01,1.995c-0.078,1.012-0.764,1.646-1.491,2.259c-0.87,0.734-1.685,1.535-2.562,2.261
		c-0.292,0.241-0.691,0.439-1.062,0.482c-0.612,0.069-0.88,0.25-1.091,0.855c-0.064,0.187-0.358,0.295-0.65,0.518
		c-0.284,0.372-0.706,0.846-1.035,1.377c-0.386,0.621-0.753,1.269-1.017,1.948c-0.308,0.792-0.408,1.67-0.758,2.438
		c-0.406,0.892-0.986,1.704-1.49,2.552c-0.782,1.315-1.754,2.48-2.898,3.489c-0.429,0.379-0.957,0.643-1.41,0.997
		c-0.799,0.624-1.558,1.302-2.371,1.906c-0.257,0.19-0.632,0.226-0.956,0.323c-0.424,0.126-0.76,0.63-1.294,0.301
		c-0.03-0.019-0.113,0.028-0.16,0.062c-1.447,1.027-3.146,1.349-4.821,1.753c-0.555,0.134-1.065,0.446-1.611,0.629
		c-0.213,0.071-0.47,0.012-0.582,0.012c-0.527,0.257-0.966,0.514-1.436,0.69c-1.064,0.399-2.146,0.658-3.312,0.654
		c-0.741-0.003-1.489,0.278-2.223,0.476c-1.449,0.391-2.72,0.131-3.856-0.883c-0.313-0.279-0.794-0.36-1.159-0.594
		c-0.649-0.413-1.253-0.896-1.903-1.306c-1.055-0.664-2.142-1.276-3.192-1.945c-0.316-0.202-0.54-0.546-0.838-0.785
		c-0.707-0.568-1.447-1.096-2.146-1.673c-0.626-0.518-1.212-1.083-1.825-1.617c-0.207-0.181-0.44-0.33-0.625-0.466
		c-0.231-0.361-0.433-0.724-0.68-1.05c-0.436-0.576-0.896-1.134-1.352-1.694c-0.4-0.492-0.836-0.959-1.207-1.474
		c-0.369-0.512-0.692-1.059-1.007-1.606c-0.366-0.638-0.758-1.271-1.034-1.949c-0.311-0.763-0.541-1.564-0.741-2.365
		c-0.287-1.147-0.543-2.305-0.753-3.468c-0.066-0.364,0.094-0.763,0.092-1.146c-0.005-0.839-0.111-1.682-0.059-2.516
		c0.048-0.765,0.26-1.519,0.382-2.281c0.104-0.642,0.122-1.303,0.289-1.926c0.14-0.521,0.432-1.003,0.671-1.495
		c0.163-0.334,0.354-0.655,0.53-0.984c0.522-0.979,1.196-1.911,1.514-2.952c0.229-0.754,0.66-1.375,0.936-2.085
		c0.17-0.438,0.489-0.837,0.807-1.197c0.929-1.052,1.568-2.25,1.919-3.605c0.186-0.718,0.319-1.452,0.557-2.152
		c0.187-0.548,0.528-1.042,0.745-1.583c0.341-0.848,0.642-1.711,0.944-2.573c0.15-0.429,0.171-0.937,0.42-1.29
		c0.42-0.595,0.615-1.223,0.524-1.91c-0.091-0.685,0.342-1.151,0.564-1.704c0.322-0.798,0.632-1.606,1.018-2.374
		c0.364-0.725,0.82-1.403,1.315-2.234c0.575,0.867,1.017,1.67,1.592,2.36c0.65,0.781,1.348,1.563,2.16,2.16
		c1.034,0.761,2.217,1.317,3.312,2.001c0.427,0.267,0.774,0.657,1.179,0.964c0.743,0.564,1.466,1.167,2.26,1.649
		c1.188,0.723,2.433,1.353,3.65,2.028c0.446,0.247,0.625,0.113,0.717-0.402c0.079-0.442-0.03-0.661-0.398-0.949
		c-1.165-0.911-2.274-1.896-3.387-2.873c-0.421-0.37-0.792-0.798-1.187-1.2C117.94,42.497,117.989,42.445,118.038,42.393z
		 M116.422,88.141c1.23-0.346,2.501-0.063,3.625-0.777c0.889-0.564,1.871-0.979,2.55-1.835c0.228-0.288,0.448-0.621,0.75-0.804
		c0.559-0.339,0.688-0.846,0.792-1.418c0.061-0.337,0.228-0.653,0.339-0.981c0.089-0.262,0.3-0.588,0.216-0.778
		c-0.142-0.315-0.415-0.627-0.891-0.531c-0.247,0.05-0.523,0.063-0.767,0.006c-1.876-0.444-3.789-0.326-5.688-0.399
		c-1.506-0.059-3.014-0.077-4.519-0.158c-0.853-0.046-1.699-0.188-2.55-0.271c-0.285-0.028-0.575,0.002-0.861-0.021
		c-0.41-0.035-0.818-0.118-1.229-0.126c-0.09-0.001-0.267,0.232-0.263,0.354c0.031,1.079,0.252,2.115,0.697,3.11
		c0.539,1.201,1.421,2.09,2.494,2.79c0.793,0.517,1.597,1.079,2.478,1.38C114.497,87.987,115.498,88.003,116.422,88.141z
		 M116.229,57.146c-0.139,0.772-0.183,1.685-0.482,2.503c-0.336,0.919-0.956,1.731-1.357,2.632
		c-0.479,1.076-1.059,2.063-1.946,2.844c-0.916,0.805-1.709,1.753-2.958,2.141c-0.536,0.167-1.154,0.539-1.422,0.999
		c-0.568,0.98-1.152,2.008-1.204,3.19c-0.025,0.58-0.006,1.191,0.152,1.743c0.291,1.017,1.151,1.626,1.911,2.273
		c0.762,0.648,1.57,1.197,2.65,1.279c1.041,0.078,2.009,0.62,3.108,0.501c0.728-0.079,1.504,0.112,2.04-0.596
		c0.028-0.038,0.104-0.062,0.155-0.059c0.547,0.032,0.569-0.337,0.583-0.733c0.016-0.49,0.016-0.978-0.569-1.147
		c-0.843-0.245-1.67-0.288-2.448,0.245c-0.167,0.113-0.41,0.164-0.617,0.162c-0.643-0.004-1.286-0.088-1.927-0.065
		c-1.191,0.043-2.103-0.523-2.896-1.303c-0.369-0.362-0.762-0.776-0.605-1.412c0.243-0.989,0.359-2.014,1.216-2.744
		c0.929-0.793,1.804-1.649,2.728-2.448c0.334-0.29,0.772-0.459,1.11-0.746c0.653-0.555,1.094-1.263,1.374-2.08
		c0.152-0.446,0.309-0.916,0.58-1.29C116.761,61.163,117.004,59.17,116.229,57.146z M130.384,57.61
		c-0.019-0.092-0.038-0.185-0.057-0.277c0.113-0.182,0.198-0.394,0.347-0.54c0.365-0.359,0.418-0.787,0.049-0.911
		c-0.864-0.292-1.736-0.572-2.622-0.791c-0.645-0.16-1.312-0.245-1.976-0.309c-0.495-0.048-0.998-0.01-1.576-0.01
		c0.114,0.538,0.071,1.109,0.336,1.419c0.479,0.562,1.141,0.971,1.729,1.438c0.051,0.04,0.15,0.08,0.194,0.057
		c0.67-0.349,1.357-0.117,2.041-0.082C129.359,57.632,129.872,57.61,130.384,57.61z M111.504,56.164
		c-0.019-0.056-0.086-0.178-0.098-0.304c-0.091-1.005-0.324-1.27-1.307-1.421c-0.646-0.1-1.292-0.216-1.943-0.27
		c-0.694-0.057-1.395-0.058-2.092-0.062c-0.095,0-0.209,0.108-0.281,0.194c-0.157,0.184-0.293,0.386-0.471,0.626
		c0.33,0.395,0.579,0.893,1.372,0.869c0.83-0.025,1.665,0.281,2.506,0.354C109.957,56.216,110.733,56.164,111.504,56.164z
		 M107.847,60.468c-0.067-0.061-0.229-0.228-0.414-0.366c-0.097-0.073-0.229-0.128-0.349-0.135
		c-0.587-0.031-1.175-0.051-1.762-0.057c-0.25-0.002-0.619-0.055-0.724,0.08c-0.17,0.218-0.28,0.601-0.214,0.861
		c0.19,0.736,0.477,1.448,0.737,2.166c0.187,0.515,0.75,0.693,1.286,0.597c0.817-0.147,0.673-0.917,1.003-1.371
		c0.15-0.206,0.271-0.456,0.327-0.704C107.812,61.218,107.81,60.877,107.847,60.468z M126.625,61.352
		c-0.566,0.11-0.887,0.317-1.09,0.869c-0.252,0.682-0.061,1.229,0.164,1.854c0.235,0.658,0.849,0.688,1.302,0.88
		c0.324,0.137,0.83-0.119,1.041-0.556c0.217-0.448,0.417-0.904,0.615-1.36c0.215-0.494,0.049-1-0.46-1.203
		C127.69,61.633,127.15,61.51,126.625,61.352z M146.655,72.232c0.738,0.032,1.639-0.56,1.788-1.182
		c0.049-0.204-0.035-0.439-0.059-0.661c-0.204,0.041-0.434,0.036-0.607,0.132C147.125,70.878,146.788,71.461,146.655,72.232z"/>
	<path fill-rule="evenodd" clip-rule="evenodd" fill="none" d="M147.693,67.006c-0.288-0.683-0.043-1.254,0.412-1.823
		c0.477,0.094,0.772,0.398,0.823,0.893C148.974,66.518,148.493,66.857,147.693,67.006z"/>
	<path fill-rule="evenodd" clip-rule="evenodd" fill="none" d="M127.127,32.729c0.007,0-0.131-0.009-0.268-0.017
		c0.032-0.128,0.033-0.337,0.104-0.365c0.109-0.042,0.332-0.008,0.395,0.077c0.365,0.494,0.698,1.012,1.042,1.522
		c-0.039,0.032-0.078,0.063-0.117,0.095C127.926,33.635,127.567,33.229,127.127,32.729z"/>
	<path fill-rule="evenodd" clip-rule="evenodd" fill="none" d="M119.557,22.441c0.112-0.527,1.225-0.86,1.947-0.578
		C120.806,22.07,120.22,22.244,119.557,22.441z"/>
	<path fill-rule="evenodd" clip-rule="evenodd" fill="none" d="M99.868,51.974c-0.093-0.005-0.208-0.011-0.41-0.022
		c0.068-0.451,0.133-0.88,0.21-1.394c0.343,0.203,0.623,0.293,0.347,0.711C99.903,51.438,99.922,51.69,99.868,51.974z"/>
	<path fill-rule="evenodd" clip-rule="evenodd" fill="none" d="M103.789,105.577c0.212-0.749,0.215-1.587,0.862-2.162
		c0.068-0.061,0.147-0.109,0.35-0.258c-0.379,2.042-1.315,3.694-2.143,5.5c-1.107-1.419-1.505-3.012-2.069-4.606
		c0.585,0.061,0.866,0.396,0.782,0.824c-0.004,0.02-0.013,0.038-0.016,0.058"/>
	<path fill-rule="evenodd" clip-rule="evenodd" d="M81.827,76.575c0,0.559,0.094,1.006-0.022,1.388
		c-0.176,0.577-0.484,1.116-0.768,1.655c-0.133,0.253-0.363,0.453-0.506,0.701c-0.611,1.058-1.382,1.94-2.478,2.535
		c-0.472,0.256-0.865,0.653-1.31,0.965c-1.032,0.723-2.278,0.774-3.438,1.108c-1.051,0.304-2.082,0.026-3.112,0.151
		c-1,0.121-1.982,0.407-2.941-0.27c-0.277-0.195-0.81,0.02-1.19-0.084c-1.398-0.381-2.695-0.969-3.809-1.938
		c-0.836-0.729-1.438-1.614-1.912-2.594c-0.403-0.831-0.762-1.685-1.141-2.527c0.038-0.064,0.076-0.13,0.114-0.194
		c0.427,0.172,0.853,0.345,1.281,0.513c0.164,0.064,0.332,0.16,0.501,0.167c0.435,0.017,0.872-0.013,1.308-0.017
		c1.647-0.014,3.295-0.001,4.942-0.042c2.183-0.056,4.368-0.099,6.544-0.256c0.954-0.068,1.888-0.41,2.832-0.624
		c0.674-0.152,1.394-0.197,2.012-0.474c0.72-0.321,1.438-0.299,2.17-0.297C81.264,76.444,81.624,76.545,81.827,76.575z
		 M60.56,78.214c0.063,1.008,0.392,1.642,0.866,2.254c1.074,1.387,2.494,2.326,4.156,2.59c1.485,0.234,2.96,0.632,4.538,0.489
		c1.534-0.14,3.038-0.358,4.441-0.906c1.395-0.544,2.74-1.281,3.991-2.108c0.793-0.524,1.401-1.348,2.034-2.086
		c0.144-0.168,0.165-0.641,0.034-0.793c-0.158-0.184-0.536-0.202-0.825-0.234c-0.142-0.017-0.312,0.075-0.446,0.156
		c-0.852,0.512-1.833,0.582-2.769,0.736c-0.912,0.149-1.857,0.092-2.789,0.124c-0.249,0.009-0.502-0.013-0.748,0.021
		c-0.706,0.095-1.406,0.24-2.114,0.308c-0.591,0.057-1.192,0.004-1.786,0.046c-0.774,0.055-1.545,0.229-2.317,0.222
		c-1.432-0.014-2.863-0.118-4.294-0.19c-0.178-0.009-0.362-0.027-0.529-0.085C61.555,78.602,61.112,78.423,60.56,78.214z"/>
	<path fill-rule="evenodd" clip-rule="evenodd" d="M75.824,72.615c-0.537-1.616-1.078-3.119-1.531-4.647
		c-0.346-1.166-0.591-2.361-0.854-3.55c-0.038-0.169,0.078-0.373,0.122-0.561c0.147,0.16,0.376,0.297,0.428,0.482
		c0.349,1.27,0.596,2.571,1.002,3.821c0.479,1.475,1.097,2.903,1.621,4.364c0.053,0.148-0.093,0.524-0.204,0.551
		c-0.773,0.182-1.56,0.306-2.346,0.427c-0.078,0.012-0.26-0.132-0.251-0.178c0.021-0.119,0.101-0.294,0.194-0.322
		c0.36-0.108,0.733-0.168,1.103-0.244C75.334,72.712,75.562,72.668,75.824,72.615z"/>
	<path fill-rule="evenodd" clip-rule="evenodd" d="M81.486,65.294c-0.006,0.702-0.339,1.207-0.821,1.174
		c-0.643-0.044-1.253-0.7-1.23-1.418c0.022-0.708,0.283-0.988,0.97-0.97C81.047,64.097,81.491,64.596,81.486,65.294z"/>
	<path fill-rule="evenodd" clip-rule="evenodd" d="M64.201,65.928c-0.02,0.796-0.339,1.159-1.013,1.152
		c-0.713-0.008-1.054-0.411-1.027-1.214c0.022-0.657,0.494-1.097,1.141-1.065C63.892,64.829,64.218,65.237,64.201,65.928z"/>
	<path fill-rule="evenodd" clip-rule="evenodd" d="M79.312,60.578c0.654-0.418,2.994,0.432,3.127,1.135
		C81.386,61.328,80.308,61.169,79.312,60.578z"/>
	<path fill-rule="evenodd" clip-rule="evenodd" d="M71.606,73.956c-0.085-0.228-0.23-0.491-0.188-0.526
		c0.205-0.17,0.451-0.312,0.705-0.389c0.091-0.027,0.247,0.159,0.373,0.248C72.278,73.452,72.061,73.615,71.606,73.956z"/>
	<path fill-rule="evenodd" clip-rule="evenodd" d="M116.422,88.141c-0.924-0.138-1.925-0.153-2.826-0.462
		c-0.881-0.301-1.685-0.863-2.478-1.38c-1.073-0.7-1.955-1.589-2.494-2.79c-0.445-0.995-0.666-2.031-0.697-3.11
		c-0.004-0.121,0.173-0.354,0.263-0.354c0.41,0.008,0.818,0.091,1.229,0.126c0.286,0.023,0.576-0.007,0.861,0.021
		c0.851,0.084,1.697,0.226,2.55,0.271c1.505,0.081,3.013,0.1,4.519,0.158c1.899,0.073,3.812-0.045,5.688,0.399
		c0.243,0.058,0.52,0.044,0.767-0.006c0.476-0.096,0.749,0.216,0.891,0.531c0.084,0.19-0.127,0.517-0.216,0.778
		c-0.111,0.328-0.278,0.645-0.339,0.981c-0.104,0.572-0.233,1.079-0.792,1.418c-0.302,0.183-0.522,0.516-0.75,0.804
		c-0.679,0.855-1.661,1.271-2.55,1.835C118.923,88.077,117.652,87.795,116.422,88.141z M110.04,80.696
		c-0.067,0.061-0.135,0.12-0.202,0.181c0.042,0.535-0.104,1.199,0.16,1.582c0.762,1.105,1.312,2.45,2.798,2.899
		c0.735,0.222,1.406,0.661,2.146,0.859c1.69,0.453,3.03-0.356,4.318-1.324c0.994-0.746,1.833-1.577,2.019-2.815
		c-1.398,0-2.801-0.055-4.198,0.013c-2.077,0.101-4.106,0.092-5.936-1.125C110.848,80.769,110.411,80.781,110.04,80.696z"/>
	<path fill-rule="evenodd" clip-rule="evenodd" d="M116.229,57.146c0.775,2.024,0.532,4.018-0.825,5.891
		c-0.271,0.375-0.428,0.844-0.58,1.29c-0.28,0.817-0.721,1.525-1.374,2.08c-0.338,0.287-0.776,0.456-1.11,0.746
		c-0.924,0.799-1.799,1.655-2.728,2.448c-0.856,0.73-0.973,1.755-1.216,2.744c-0.156,0.636,0.236,1.05,0.605,1.412
		c0.794,0.779,1.705,1.346,2.896,1.303c0.641-0.022,1.284,0.062,1.927,0.065c0.207,0.002,0.45-0.049,0.617-0.162
		c0.778-0.533,1.605-0.49,2.448-0.245c0.585,0.17,0.585,0.657,0.569,1.147c-0.014,0.396-0.036,0.766-0.583,0.733
		c-0.052-0.003-0.127,0.021-0.155,0.059c-0.536,0.708-1.312,0.517-2.04,0.596c-1.1,0.119-2.067-0.423-3.108-0.501
		c-1.08-0.082-1.889-0.631-2.65-1.279c-0.76-0.647-1.62-1.257-1.911-2.273c-0.158-0.552-0.178-1.163-0.152-1.743
		c0.052-1.183,0.636-2.21,1.204-3.19c0.268-0.46,0.886-0.832,1.422-0.999c1.249-0.388,2.042-1.336,2.958-2.141
		c0.888-0.781,1.467-1.769,1.946-2.844c0.401-0.901,1.021-1.713,1.357-2.632C116.046,58.831,116.09,57.918,116.229,57.146z"/>
	<path fill-rule="evenodd" clip-rule="evenodd" d="M130.384,57.61c-0.512,0-1.024,0.021-1.534-0.005
		c-0.684-0.036-1.371-0.268-2.041,0.082c-0.044,0.023-0.144-0.017-0.194-0.057c-0.589-0.467-1.25-0.876-1.729-1.438
		c-0.265-0.31-0.222-0.881-0.336-1.419c0.578,0,1.081-0.038,1.576,0.01c0.663,0.064,1.331,0.149,1.976,0.309
		c0.886,0.219,1.758,0.499,2.622,0.791c0.369,0.125,0.316,0.552-0.049,0.911c-0.148,0.146-0.233,0.358-0.347,0.54
		C130.346,57.426,130.365,57.518,130.384,57.61z"/>
	<path fill-rule="evenodd" clip-rule="evenodd" d="M111.504,56.164c-0.771,0-1.547,0.052-2.313-0.014
		c-0.841-0.073-1.676-0.379-2.506-0.354c-0.793,0.024-1.042-0.475-1.372-0.869c0.178-0.24,0.313-0.442,0.471-0.626
		c0.072-0.086,0.187-0.195,0.281-0.194c0.697,0.004,1.397,0.005,2.092,0.062c0.651,0.054,1.297,0.17,1.943,0.27
		c0.982,0.152,1.216,0.416,1.307,1.421C111.418,55.986,111.485,56.107,111.504,56.164z"/>
	<path fill-rule="evenodd" clip-rule="evenodd" d="M107.847,60.468c-0.037,0.409-0.035,0.75-0.108,1.072
		c-0.057,0.248-0.177,0.498-0.327,0.704c-0.33,0.454-0.186,1.224-1.003,1.371c-0.536,0.096-1.1-0.082-1.286-0.597
		c-0.261-0.717-0.547-1.429-0.737-2.166c-0.066-0.261,0.044-0.643,0.214-0.861c0.104-0.134,0.474-0.082,0.724-0.08
		c0.587,0.006,1.175,0.026,1.762,0.057c0.119,0.006,0.252,0.062,0.349,0.135C107.617,60.241,107.779,60.408,107.847,60.468z"/>
	<path fill-rule="evenodd" clip-rule="evenodd" d="M126.625,61.352c0.525,0.158,1.065,0.281,1.572,0.484
		c0.509,0.203,0.675,0.709,0.46,1.203c-0.198,0.456-0.398,0.912-0.615,1.36c-0.211,0.438-0.717,0.693-1.041,0.556
		c-0.453-0.192-1.066-0.222-1.302-0.88c-0.225-0.625-0.416-1.172-0.164-1.854C125.738,61.669,126.059,61.462,126.625,61.352z"/>
	<path fill-rule="evenodd" clip-rule="evenodd" d="M146.655,72.232c0.133-0.771,0.47-1.354,1.122-1.711
		c0.174-0.096,0.403-0.091,0.607-0.132c0.023,0.222,0.107,0.457,0.059,0.661C148.294,71.673,147.394,72.265,146.655,72.232z"/>
	<path fill-rule="evenodd" clip-rule="evenodd" fill="none" d="M60.56,78.214c0.552,0.209,0.995,0.388,1.446,0.542
		c0.167,0.058,0.351,0.076,0.529,0.085c1.431,0.072,2.862,0.177,4.294,0.19c0.771,0.007,1.543-0.167,2.317-0.222
		c0.593-0.042,1.195,0.011,1.786-0.046c0.708-0.067,1.408-0.213,2.114-0.308c0.246-0.033,0.499-0.012,0.748-0.021
		c0.931-0.032,1.877,0.025,2.789-0.124c0.936-0.154,1.917-0.225,2.769-0.736c0.134-0.081,0.304-0.173,0.446-0.156
		c0.289,0.032,0.667,0.051,0.825,0.234c0.131,0.152,0.11,0.625-0.034,0.793c-0.633,0.738-1.241,1.562-2.034,2.086
		c-1.251,0.827-2.596,1.564-3.991,2.108c-1.403,0.548-2.907,0.767-4.441,0.906c-1.578,0.143-3.053-0.255-4.538-0.489
		c-1.662-0.264-3.082-1.203-4.156-2.59C60.951,79.855,60.623,79.222,60.56,78.214z"/>
	<path fill-rule="evenodd" clip-rule="evenodd" fill="none" d="M110.04,80.696c0.371,0.085,0.808,0.072,1.104,0.27
		c1.829,1.217,3.858,1.226,5.936,1.125c1.397-0.067,2.8-0.013,4.198-0.013c-0.186,1.238-1.024,2.069-2.019,2.815
		c-1.288,0.968-2.628,1.777-4.318,1.324c-0.739-0.198-1.41-0.638-2.146-0.859c-1.486-0.449-2.036-1.794-2.798-2.899
		c-0.264-0.383-0.118-1.047-0.16-1.582C109.905,80.816,109.973,80.757,110.04,80.696z"/>
</g>
</svg>
